<svg width="818" height="161" viewBox="0 0 818 161" fill="none" xmlns="http://www.w3.org/2000/svg">
<g opacity="0.55">
<mask id="path-1-outside-1_485_2913" maskUnits="userSpaceOnUse" x="-0.582031" y="-0.388672" width="818" height="161" fill="black">
<rect fill="white" x="-0.582031" y="-0.388672" width="818" height="161"/>
<path d="M1.00005 159.611V1.00012H39.6916V70.4526C47.542 66.9279 54.8317 62.522 61.5607 57.235C68.2897 51.948 74.2175 46.1803 79.3444 39.932C84.6314 33.6836 88.9572 27.2751 92.3217 20.7064C95.8464 13.9774 98.4098 7.40865 100.012 1.00012H144.711C142.789 8.36993 139.665 15.9 135.339 23.5902C131.013 31.1202 125.806 38.4099 119.718 45.4593C113.63 52.3485 107.061 58.5167 100.012 63.964C93.1227 69.4112 86.0733 73.737 78.8637 76.9412V80.546C86.2335 80.546 92.7222 81.3471 98.3297 82.9492C104.097 84.5514 109.144 87.0347 113.47 90.3992C117.956 93.7636 121.801 98.0093 125.005 103.136C128.37 108.103 131.253 114.111 133.657 121.16L147.355 159.611H103.376L94.4845 128.129C92.562 121.08 89.9986 115.553 86.7943 111.547C83.59 107.382 79.3444 104.418 74.0573 102.655C68.7703 100.733 61.9612 99.7716 53.6301 99.7716H39.6916V159.611H1.00005ZM264.695 159.611V1.00012H303.386V159.611H264.695ZM161.357 159.611V1.00012H200.049V159.611H161.357ZM184.909 95.2056V63.964H280.316V95.2056H184.909ZM316.476 159.611L370.308 1.00012H427.024L480.855 159.611H438.559L400.588 31.2804H396.743L358.773 159.611H316.476ZM348.439 129.812V103.857H454.66V129.812H348.439ZM493.572 159.611V1.00012H532.263V159.611H493.572ZM500.541 159.611V127.168H596.909V159.611H500.541ZM608.634 159.611V1.00012H648.047V159.611H608.634ZM692.202 159.611V128.37H738.103C746.434 128.37 753.403 126.607 759.011 123.083C764.618 119.558 768.784 114.271 771.507 107.222C774.391 100.172 775.833 91.3604 775.833 80.7864C775.833 72.2951 774.952 65.0053 773.19 58.9172C771.427 52.8291 768.784 47.8625 765.259 44.0174C761.894 40.0121 757.489 37.0481 752.041 35.1256C746.754 33.203 740.506 32.2417 733.296 32.2417H692.202V1.00012H731.854C751.561 1.00012 767.662 4.12428 780.159 10.3726C792.655 16.6209 801.788 25.5929 807.555 37.2884C813.323 48.8238 816.207 62.6823 816.207 78.8638C816.207 91.3604 814.685 102.175 811.641 111.307C808.757 120.439 804.752 128.129 799.625 134.378C794.498 140.466 788.57 145.432 781.841 149.278C775.272 152.962 768.303 155.606 760.933 157.208C753.724 158.81 746.514 159.611 739.304 159.611H692.202ZM674.178 159.611V1.00012H712.869V159.611H674.178Z"/>
</mask>
<path d="M1.00005 159.611V1.00012H39.6916V70.4526C47.542 66.9279 54.8317 62.522 61.5607 57.235C68.2897 51.948 74.2175 46.1803 79.3444 39.932C84.6314 33.6836 88.9572 27.2751 92.3217 20.7064C95.8464 13.9774 98.4098 7.40865 100.012 1.00012H144.711C142.789 8.36993 139.665 15.9 135.339 23.5902C131.013 31.1202 125.806 38.4099 119.718 45.4593C113.63 52.3485 107.061 58.5167 100.012 63.964C93.1227 69.4112 86.0733 73.737 78.8637 76.9412V80.546C86.2335 80.546 92.7222 81.3471 98.3297 82.9492C104.097 84.5514 109.144 87.0347 113.47 90.3992C117.956 93.7636 121.801 98.0093 125.005 103.136C128.37 108.103 131.253 114.111 133.657 121.16L147.355 159.611H103.376L94.4845 128.129C92.562 121.08 89.9986 115.553 86.7943 111.547C83.59 107.382 79.3444 104.418 74.0573 102.655C68.7703 100.733 61.9612 99.7716 53.6301 99.7716H39.6916V159.611H1.00005ZM264.695 159.611V1.00012H303.386V159.611H264.695ZM161.357 159.611V1.00012H200.049V159.611H161.357ZM184.909 95.2056V63.964H280.316V95.2056H184.909ZM316.476 159.611L370.308 1.00012H427.024L480.855 159.611H438.559L400.588 31.2804H396.743L358.773 159.611H316.476ZM348.439 129.812V103.857H454.66V129.812H348.439ZM493.572 159.611V1.00012H532.263V159.611H493.572ZM500.541 159.611V127.168H596.909V159.611H500.541ZM608.634 159.611V1.00012H648.047V159.611H608.634ZM692.202 159.611V128.37H738.103C746.434 128.37 753.403 126.607 759.011 123.083C764.618 119.558 768.784 114.271 771.507 107.222C774.391 100.172 775.833 91.3604 775.833 80.7864C775.833 72.2951 774.952 65.0053 773.19 58.9172C771.427 52.8291 768.784 47.8625 765.259 44.0174C761.894 40.0121 757.489 37.0481 752.041 35.1256C746.754 33.203 740.506 32.2417 733.296 32.2417H692.202V1.00012H731.854C751.561 1.00012 767.662 4.12428 780.159 10.3726C792.655 16.6209 801.788 25.5929 807.555 37.2884C813.323 48.8238 816.207 62.6823 816.207 78.8638C816.207 91.3604 814.685 102.175 811.641 111.307C808.757 120.439 804.752 128.129 799.625 134.378C794.498 140.466 788.57 145.432 781.841 149.278C775.272 152.962 768.303 155.606 760.933 157.208C753.724 158.81 746.514 159.611 739.304 159.611H692.202ZM674.178 159.611V1.00012H712.869V159.611H674.178Z" fill="white" fill-opacity="0.08"/>
<path d="M1.00005 159.611H5.05447e-05V160.611H1.00005V159.611ZM1.00005 1.00012V0.000118256H5.05447e-05V1.00012H1.00005ZM39.6916 1.00012H40.6916V0.000118256H39.6916V1.00012ZM39.6916 70.4526H38.6916V71.9977L40.1012 71.3649L39.6916 70.4526ZM61.5607 57.235L60.9429 56.4487V56.4487L61.5607 57.235ZM79.3444 39.932L78.581 39.286L78.5761 39.2918L78.5713 39.2976L79.3444 39.932ZM92.3217 20.7064L91.4358 20.2423L91.4316 20.2505L92.3217 20.7064ZM100.012 1.00012V0.000118256H99.2311L99.0418 0.75758L100.012 1.00012ZM144.711 1.00012L145.679 1.25254L146.006 0.000118256H144.711V1.00012ZM135.339 23.5902L136.206 24.0883L136.211 24.0805L135.339 23.5902ZM119.718 45.4593L120.468 46.1216L120.475 46.1129L119.718 45.4593ZM100.012 63.964L99.4004 63.1726L99.3917 63.1795L100.012 63.964ZM78.8637 76.9412L78.4576 76.0274L77.8637 76.2914V76.9412H78.8637ZM78.8637 80.546H77.8637V81.546H78.8637V80.546ZM98.3297 82.9492L98.0549 83.9108L98.062 83.9128L98.3297 82.9492ZM113.47 90.3992L112.856 91.1885L112.863 91.1939L112.87 91.1992L113.47 90.3992ZM125.005 103.136L124.157 103.666L124.167 103.682L124.177 103.697L125.005 103.136ZM133.657 121.16L132.71 121.483L132.715 121.496L133.657 121.16ZM147.355 159.611V160.611H148.773L148.297 159.276L147.355 159.611ZM103.376 159.611L102.414 159.883L102.62 160.611H103.376V159.611ZM94.4845 128.129L93.5197 128.393L93.5222 128.401L94.4845 128.129ZM86.7943 111.547L86.0017 112.157L86.0075 112.165L86.0134 112.172L86.7943 111.547ZM74.0573 102.655L73.7156 103.595L73.7283 103.6L73.7411 103.604L74.0573 102.655ZM39.6916 99.7716V98.7716H38.6916V99.7716H39.6916ZM39.6916 159.611V160.611H40.6916V159.611H39.6916ZM1.00005 159.611H2.00005V1.00012H1.00005H5.05447e-05V159.611H1.00005ZM1.00005 1.00012V2.00012H39.6916V1.00012V0.000118256H1.00005V1.00012ZM39.6916 1.00012H38.6916V70.4526H39.6916H40.6916V1.00012H39.6916ZM39.6916 70.4526L40.1012 71.3649C48.0255 67.807 55.3852 63.3589 62.1785 58.0213L61.5607 57.235L60.9429 56.4487C54.2783 61.6851 47.0586 66.0488 39.282 69.5403L39.6916 70.4526ZM61.5607 57.235L62.1785 58.0213C68.9613 52.692 74.9419 46.8739 80.1174 40.5663L79.3444 39.932L78.5713 39.2976C73.4932 45.4866 67.618 51.2039 60.9429 56.4487L61.5607 57.235ZM79.3444 39.932L80.1078 40.5779C85.4389 34.2775 89.8089 27.8059 93.2117 21.1622L92.3217 20.7064L91.4316 20.2505C88.1055 26.7443 83.824 33.0898 78.581 39.286L79.3444 39.932ZM92.3217 20.7064L93.2075 21.1704C96.7636 14.3814 99.3581 7.73856 100.982 1.24265L100.012 1.00012L99.0418 0.75758C97.4615 7.07875 94.9291 13.5734 91.4358 20.2424L92.3217 20.7064ZM100.012 1.00012V2.00012H144.711V1.00012V0.000118256H100.012V1.00012ZM144.711 1.00012L143.744 0.747696C141.846 8.02254 138.758 15.473 134.467 23.0999L135.339 23.5902L136.211 24.0805C140.572 16.3269 143.732 8.71732 145.679 1.25254L144.711 1.00012ZM135.339 23.5902L134.472 23.0921C130.18 30.563 125.011 37.801 118.961 44.8057L119.718 45.4593L120.475 46.1129C126.602 39.0188 131.846 31.6774 136.206 24.0883L135.339 23.5902ZM119.718 45.4593L118.969 44.7971C112.921 51.6405 106.398 57.7652 99.4005 63.1727L100.012 63.964L100.623 64.7552C107.724 59.2682 114.339 53.0565 120.467 46.1215L119.718 45.4593ZM100.012 63.964L99.3917 63.1795C92.5609 68.5807 85.5826 72.8607 78.4576 76.0274L78.8637 76.9412L79.2699 77.8551C86.564 74.6132 93.6846 70.2418 100.632 64.7484L100.012 63.964ZM78.8637 76.9412H77.8637V80.546H78.8637H79.8637V76.9412H78.8637ZM78.8637 80.546V81.546C86.1639 81.546 92.5567 82.3398 98.0549 83.9108L98.3297 82.9492L98.6044 81.9877C92.8877 80.3544 86.3032 79.546 78.8637 79.546V80.546ZM98.3297 82.9492L98.062 83.9128C103.716 85.4832 108.642 87.9112 112.856 91.1885L113.47 90.3992L114.084 89.6098C109.646 86.1581 104.479 83.6195 98.5973 81.9857L98.3297 82.9492ZM113.47 90.3992L112.87 91.1992C117.25 94.4841 121.013 98.6356 124.157 103.666L125.005 103.136L125.853 102.606C122.589 97.383 118.662 93.0432 114.07 89.5992L113.47 90.3992ZM125.005 103.136L124.177 103.697C127.481 108.575 130.329 114.498 132.71 121.483L133.657 121.16L134.603 120.837C132.178 113.723 129.258 107.631 125.833 102.575L125.005 103.136ZM133.657 121.16L132.715 121.496L146.413 159.947L147.355 159.611L148.297 159.276L134.599 120.825L133.657 121.16ZM147.355 159.611V158.611H103.376V159.611V160.611H147.355V159.611ZM103.376 159.611L104.339 159.34L95.4469 127.858L94.4845 128.129L93.5222 128.401L102.414 159.883L103.376 159.611ZM94.4845 128.129L95.4493 127.866C93.5049 120.737 90.8929 115.07 87.5752 110.923L86.7943 111.547L86.0134 112.172C89.1042 116.035 91.619 121.423 93.5198 128.393L94.4845 128.129ZM86.7943 111.547L87.5869 110.938C84.2537 106.604 79.8376 103.528 74.3736 101.707L74.0573 102.655L73.7411 103.604C78.8512 105.308 82.9264 108.159 86.0017 112.157L86.7943 111.547ZM74.0573 102.655L74.3991 101.716C68.9633 99.739 62.0271 98.7716 53.6301 98.7716V99.7716V100.772C61.8954 100.772 68.5773 101.727 73.7156 103.595L74.0573 102.655ZM53.6301 99.7716V98.7716H39.6916V99.7716V100.772H53.6301V99.7716ZM39.6916 99.7716H38.6916V159.611H39.6916H40.6916V99.7716H39.6916ZM39.6916 159.611V158.611H1.00005V159.611V160.611H39.6916V159.611ZM264.695 159.611H263.695V160.611H264.695V159.611ZM264.695 1.00012V0.000118256H263.695V1.00012H264.695ZM303.386 1.00012H304.386V0.000118256H303.386V1.00012ZM303.386 159.611V160.611H304.386V159.611H303.386ZM161.357 159.611H160.357V160.611H161.357V159.611ZM161.357 1.00012V0.000118256H160.357V1.00012H161.357ZM200.049 1.00012H201.049V0.000118256H200.049V1.00012ZM200.049 159.611V160.611H201.049V159.611H200.049ZM184.909 95.2056H183.909V96.2056H184.909V95.2056ZM184.909 63.964V62.964H183.909V63.964H184.909ZM280.316 63.964H281.316V62.964H280.316V63.964ZM280.316 95.2056V96.2056H281.316V95.2056H280.316ZM264.695 159.611H265.695V1.00012H264.695H263.695V159.611H264.695ZM264.695 1.00012V2.00012H303.386V1.00012V0.000118256H264.695V1.00012ZM303.386 1.00012H302.386V159.611H303.386H304.386V1.00012H303.386ZM303.386 159.611V158.611H264.695V159.611V160.611H303.386V159.611ZM161.357 159.611H162.357V1.00012H161.357H160.357V159.611H161.357ZM161.357 1.00012V2.00012H200.049V1.00012V0.000118256H161.357V1.00012ZM200.049 1.00012H199.049V159.611H200.049H201.049V1.00012H200.049ZM200.049 159.611V158.611H161.357V159.611V160.611H200.049V159.611ZM184.909 95.2056H185.909V63.964H184.909H183.909V95.2056H184.909ZM184.909 63.964V64.964H280.316V63.964V62.964H184.909V63.964ZM280.316 63.964H279.316V95.2056H280.316H281.316V63.964H280.316ZM280.316 95.2056V94.2056H184.909V95.2056V96.2056H280.316V95.2056ZM316.476 159.611L315.529 159.29L315.081 160.611H316.476V159.611ZM370.308 1.00012V0.000118256H369.591L369.361 0.67873L370.308 1.00012ZM427.024 1.00012L427.971 0.67873L427.74 0.000118256H427.024V1.00012ZM480.855 159.611V160.611H482.251L481.802 159.29L480.855 159.611ZM438.559 159.611L437.6 159.895L437.812 160.611H438.559V159.611ZM400.588 31.2804L401.547 30.9967L401.335 30.2804H400.588V31.2804ZM396.743 31.2804V30.2804H395.996L395.784 30.9967L396.743 31.2804ZM358.773 159.611V160.611H359.52L359.732 159.895L358.773 159.611ZM348.439 129.812H347.439V130.812H348.439V129.812ZM348.439 103.857V102.857H347.439V103.857H348.439ZM454.66 103.857H455.66V102.857H454.66V103.857ZM454.66 129.812V130.812H455.66V129.812H454.66ZM316.476 159.611L317.423 159.933L371.255 1.32151L370.308 1.00012L369.361 0.67873L315.529 159.29L316.476 159.611ZM370.308 1.00012V2.00012H427.024V1.00012V0.000118256H370.308V1.00012ZM427.024 1.00012L426.077 1.32151L479.908 159.933L480.855 159.611L481.802 159.29L427.971 0.67873L427.024 1.00012ZM480.855 159.611V158.611H438.559V159.611V160.611H480.855V159.611ZM438.559 159.611L439.518 159.328L401.547 30.9967L400.588 31.2804L399.629 31.5642L437.6 159.895L438.559 159.611ZM400.588 31.2804V30.2804H396.743V31.2804V32.2804H400.588V31.2804ZM396.743 31.2804L395.784 30.9967L357.814 159.328L358.773 159.611L359.732 159.895L397.702 31.5642L396.743 31.2804ZM358.773 159.611V158.611H316.476V159.611V160.611H358.773V159.611ZM348.439 129.812H349.439V103.857H348.439H347.439V129.812H348.439ZM348.439 103.857V104.857H454.66V103.857V102.857H348.439V103.857ZM454.66 103.857H453.66V129.812H454.66H455.66V103.857H454.66ZM454.66 129.812V128.812H348.439V129.812V130.812H454.66V129.812ZM493.572 159.611H492.572V160.611H493.572V159.611ZM493.572 1.00012V0.000118256H492.572V1.00012H493.572ZM532.263 1.00012H533.263V0.000118256H532.263V1.00012ZM532.263 159.611V160.611H533.263V159.611H532.263ZM500.541 159.611H499.541V160.611H500.541V159.611ZM500.541 127.168V126.168H499.541V127.168H500.541ZM596.909 127.168H597.909V126.168H596.909V127.168ZM596.909 159.611V160.611H597.909V159.611H596.909ZM493.572 159.611H494.572V1.00012H493.572H492.572V159.611H493.572ZM493.572 1.00012V2.00012H532.263V1.00012V0.000118256H493.572V1.00012ZM532.263 1.00012H531.263V159.611H532.263H533.263V1.00012H532.263ZM532.263 159.611V158.611H493.572V159.611V160.611H532.263V159.611ZM500.541 159.611H501.541V127.168H500.541H499.541V159.611H500.541ZM500.541 127.168V128.168H596.909V127.168V126.168H500.541V127.168ZM596.909 127.168H595.909V159.611H596.909H597.909V127.168H596.909ZM596.909 159.611V158.611H500.541V159.611V160.611H596.909V159.611ZM608.634 159.611H607.634V160.611H608.634V159.611ZM608.634 1.00012V0.000118256H607.634V1.00012H608.634ZM648.047 1.00012H649.047V0.000118256H648.047V1.00012ZM648.047 159.611V160.611H649.047V159.611H648.047ZM608.634 159.611H609.634V1.00012H608.634H607.634V159.611H608.634ZM608.634 1.00012V2.00012H648.047V1.00012V0.000118256H608.634V1.00012ZM648.047 1.00012H647.047V159.611H648.047H649.047V1.00012H648.047ZM648.047 159.611V158.611H608.634V159.611V160.611H648.047V159.611ZM692.202 159.611H691.202V160.611H692.202V159.611ZM692.202 128.37V127.37H691.202V128.37H692.202ZM771.507 107.222L770.582 106.843L770.578 106.852L770.574 106.861L771.507 107.222ZM773.19 58.9172L774.15 58.6392V58.6392L773.19 58.9172ZM765.259 44.0174L764.493 44.6606L764.507 44.6772L764.522 44.6931L765.259 44.0174ZM752.041 35.1256L751.7 36.0654L751.708 36.0686L752.041 35.1256ZM692.202 32.2417H691.202V33.2417H692.202V32.2417ZM692.202 1.00012V0.000118256H691.202V1.00012H692.202ZM780.159 10.3726L780.606 9.47816V9.47816L780.159 10.3726ZM807.555 37.2884L806.658 37.7307L806.661 37.7357L807.555 37.2884ZM811.641 111.307L810.692 110.991L810.69 110.998L810.687 111.006L811.641 111.307ZM799.625 134.378L800.39 135.022L800.398 135.012L799.625 134.378ZM781.841 149.278L782.33 150.15L782.337 150.146L781.841 149.278ZM760.933 157.208L760.721 156.231L760.716 156.232L760.933 157.208ZM674.178 159.611H673.178V160.611H674.178V159.611ZM674.178 1.00012V0.000118256H673.178V1.00012H674.178ZM712.869 1.00012H713.869V0.000118256H712.869V1.00012ZM712.869 159.611V160.611H713.869V159.611H712.869ZM692.202 159.611H693.202V128.37H692.202H691.202V159.611H692.202ZM692.202 128.37V129.37H738.103V128.37V127.37H692.202V128.37ZM738.103 128.37V129.37C746.574 129.37 753.74 127.577 759.543 123.929L759.011 123.083L758.478 122.236C753.067 125.638 746.294 127.37 738.103 127.37V128.37ZM759.011 123.083L759.543 123.929C765.358 120.274 769.65 114.803 772.44 107.582L771.507 107.222L770.574 106.861C767.917 113.739 763.878 118.842 758.478 122.236L759.011 123.083ZM771.507 107.222L772.433 107.6C775.381 100.394 776.833 91.4433 776.833 80.7864H775.833H774.833C774.833 91.2775 773.401 99.9507 770.582 106.843L771.507 107.222ZM775.833 80.7864H776.833C776.833 72.2307 775.946 64.8424 774.15 58.6392L773.19 58.9172L772.229 59.1953C773.958 65.1683 774.833 72.3594 774.833 80.7864H775.833ZM773.19 58.9172L774.15 58.6392C772.354 52.4344 769.645 47.3222 765.996 43.3417L765.259 44.0174L764.522 44.6931C767.922 48.4028 770.5 53.2238 772.229 59.1953L773.19 58.9172ZM765.259 44.0174L766.025 43.3742C762.534 39.2181 757.972 36.1582 752.374 34.1826L752.041 35.1256L751.708 36.0686C757.005 37.938 761.255 40.806 764.493 44.6606L765.259 44.0174ZM752.041 35.1256L752.383 34.1858C746.961 32.2139 740.591 31.2417 733.296 31.2417V32.2417V33.2417C740.421 33.2417 746.548 34.1921 751.7 36.0654L752.041 35.1256ZM733.296 32.2417V31.2417H692.202V32.2417V33.2417H733.296V32.2417ZM692.202 32.2417H693.202V1.00012H692.202H691.202V32.2417H692.202ZM692.202 1.00012V2.00012H731.854V1.00012V0.000118256H692.202V1.00012ZM731.854 1.00012V2.00012C751.465 2.00012 767.399 5.11065 779.712 11.267L780.159 10.3726L780.606 9.47816C767.925 3.13791 751.656 0.000118256 731.854 0.000118256V1.00012ZM780.159 10.3726L779.712 11.267C792.028 17.4252 800.994 26.2453 806.658 37.7307L807.555 37.2884L808.452 36.8462C802.581 24.9405 793.283 15.8167 780.606 9.47816L780.159 10.3726ZM807.555 37.2884L806.661 37.7357C812.344 49.1013 815.207 62.7989 815.207 78.8638H816.207H817.207C817.207 62.5656 814.302 48.5463 808.45 36.8412L807.555 37.2884ZM816.207 78.8638H815.207C815.207 91.2832 813.694 101.986 810.692 110.991L811.641 111.307L812.589 111.623C815.676 102.364 817.207 91.4376 817.207 78.8638H816.207ZM811.641 111.307L810.687 111.006C807.835 120.039 803.884 127.61 798.852 133.743L799.625 134.378L800.398 135.012C805.619 128.649 809.679 120.84 812.594 111.608L811.641 111.307ZM799.625 134.378L798.86 133.734C793.807 139.734 787.969 144.624 781.345 148.409L781.841 149.278L782.337 150.146C789.171 146.241 795.189 141.197 800.39 135.022L799.625 134.378ZM781.841 149.278L781.352 148.405C774.87 152.042 767.994 154.65 760.721 156.231L760.933 157.208L761.146 158.185C768.612 156.562 775.675 153.883 782.33 150.15L781.841 149.278ZM760.933 157.208L760.716 156.232C753.576 157.819 746.439 158.611 739.304 158.611V159.611V160.611C746.589 160.611 753.871 159.802 761.15 158.184L760.933 157.208ZM739.304 159.611V158.611H692.202V159.611V160.611H739.304V159.611ZM674.178 159.611H675.178V1.00012H674.178H673.178V159.611H674.178ZM674.178 1.00012V2.00012H712.869V1.00012V0.000118256H674.178V1.00012ZM712.869 1.00012H711.869V159.611H712.869H713.869V1.00012H712.869ZM712.869 159.611V158.611H674.178V159.611V160.611H712.869V159.611Z" fill="url(#paint0_linear_485_2913)" mask="url(#path-1-outside-1_485_2913)"/>
</g>
<defs>
<linearGradient id="paint0_linear_485_2913" x1="405.918" y1="-37.3887" x2="405.918" y2="198.611" gradientUnits="userSpaceOnUse">
<stop stop-color="#5275FF" stop-opacity="0.7"/>
<stop offset="1" stop-color="white" stop-opacity="0"/>
</linearGradient>
</defs>
</svg>
