<svg width="362" height="1200" viewBox="0 0 362 1200" fill="none" xmlns="http://www.w3.org/2000/svg">
<mask id="path-1-outside-1_247_94" maskUnits="userSpaceOnUse" x="-253.978" y="-254.231" width="1651.51" height="1468.49" fill="black">
<rect fill="white" x="-253.978" y="-254.231" width="1651.51" height="1468.49"/>
<path d="M336.729 1094.26L216.586 1198.47L191.008 1168.98L242.341 1124.46C235.347 1120.32 228.195 1117.59 220.887 1116.27C213.351 1114.94 205.909 1114.7 198.561 1115.54C191.213 1116.39 184.035 1118.04 177.027 1120.5C169.898 1123.07 163.19 1126.12 156.903 1129.66L128.166 1096.53C136.346 1091.99 144.742 1088.43 153.352 1085.85C161.736 1083.26 170.265 1081.82 178.941 1081.52C187.617 1081.23 196.326 1082.07 205.067 1084.06C213.687 1086.15 222.272 1089.55 230.82 1094.26L232.276 1092.99C225.249 1086.12 220.418 1079.57 217.785 1073.35C215.031 1067.23 213.795 1061.39 214.075 1055.83C214.356 1050.27 215.641 1045.01 217.929 1040.05C219.991 1035.07 222.377 1030.34 225.086 1025.86L246.571 990.322L274.992 1023.09L254.233 1053.22C250.812 1058.1 248.661 1062.73 247.78 1067.11C246.674 1071.47 246.882 1075.75 248.405 1079.96C249.928 1084.17 252.795 1088.7 257.006 1093.56L266.005 1103.93L311.15 1064.77L336.729 1094.26ZM200.894 893.406L56.612 960.313L40.1894 924.898L184.471 857.991L200.894 893.406ZM240.937 979.756L96.6547 1046.66L80.2321 1011.25L224.514 944.342L240.937 979.756ZM170.958 980.067L141.227 993.854L104.834 915.374L134.564 901.587L170.958 980.067ZM180.525 848.823L15.5222 818.758L8.31635 768.67L158.187 693.55L164.192 735.29L43.096 788.742L43.3019 790.173L174.589 807.56L180.525 848.823ZM148.33 823.024L121.139 826.935L106.693 726.521L133.884 722.609L148.33 823.024ZM159.169 683.551L1.06087 666.358L5.28108 627.549L163.389 644.743L159.169 683.551ZM159.898 676.844L126.839 673.249L136.869 581.019L169.928 584.614L159.898 676.844ZM172.613 573.839L19.1272 532.175L29.4167 494.269L182.903 535.932L172.613 573.839ZM197.575 501.98L168.395 487.599L186.612 450.638C189.31 445.163 190.643 439.551 190.61 433.804C190.648 427.912 188.424 422.07 183.936 416.276C179.304 410.411 171.369 404.709 160.129 399.17C152.06 395.193 144.897 392.647 138.64 391.533C132.383 390.42 126.924 390.595 122.262 392.058C117.528 393.307 113.375 395.737 109.803 399.35C106.303 402.819 103.203 407.291 100.504 412.767L84.099 446.053L54.9196 431.671L70.5793 399.898C78.8885 383.039 88.4807 370.663 99.3558 362.769C110.231 354.876 122.171 351 135.176 351.141C148.036 351.211 161.743 354.832 176.297 362.005C187.536 367.545 196.624 373.635 203.559 380.277C210.565 386.775 215.777 393.642 219.195 400.879C222.613 408.116 224.595 415.36 225.139 422.614C225.684 429.867 225.114 437.019 223.43 444.069C221.746 451.119 219.377 457.743 216.324 463.939L197.575 501.98ZM189.691 517.975L47.0364 447.666L64.2941 412.651L206.949 482.96L189.691 517.975ZM288.111 347.462L186.014 225.519L230.911 187.929L328.405 253.699L328.774 253.389L280.612 146.317L323.107 110.737L425.204 232.68L397.49 255.884L320.608 164.057L320.238 164.367L369.591 279.243L343.355 301.209L239.313 232.122L238.943 232.431L315.825 324.258L288.111 347.462ZM432.682 226.827L425.357 59.2671L472.594 41.119L579.118 170.567L539.754 185.691L460.747 79.4874L459.397 80.0059L471.597 211.876L432.682 226.827ZM450.689 189.706L440.837 164.063L535.537 127.68L545.389 153.323L450.689 189.706ZM684.045 162.552L672.117 3.95952L711.044 1.03167L722.972 159.624L684.045 162.552ZM589.13 169.691L577.202 11.0984L616.129 8.17057L628.057 166.763L589.13 169.691ZM613.434 104.067L610.976 71.3873L697.24 64.899L699.698 97.5787L613.434 104.067ZM741.327 161.342L780.869 7.29574L837.586 21.8542L840.997 139.408L841.464 139.528L900.371 37.9703L954.054 51.7499L914.513 205.796L879.502 196.81L909.278 80.808L908.811 80.6882L844.258 187.763L811.115 179.256L806.58 54.447L806.114 54.3272L776.338 170.329L741.327 161.342ZM986.97 254.252C977.581 248.063 970.104 241.017 964.538 233.115C958.972 225.213 955.475 216.654 954.046 207.438C952.617 198.222 953.324 188.394 956.166 177.953C959.143 167.601 964.3 156.858 971.639 145.726C982.073 129.899 993.198 118.569 1005.01 111.736C1017.05 104.857 1029.38 101.919 1042 102.923C1054.74 104.016 1067.22 108.586 1079.43 116.632C1088.81 122.821 1096.22 129.823 1101.66 137.637C1107.31 145.405 1110.85 153.897 1112.28 163.112C1113.71 172.328 1112.89 182.179 1109.83 192.666C1106.98 203.106 1101.81 214.027 1094.29 225.428C1086.69 236.962 1078.53 246.116 1069.84 252.889C1061.27 259.75 1052.34 264.252 1043.04 266.394C1033.87 268.624 1024.49 268.695 1014.9 266.606C1005.54 264.471 996.224 260.353 986.97 254.252ZM1005.82 228.29C1011.85 232.269 1017.79 234.065 1023.62 233.679C1029.68 233.246 1035.64 230.631 1041.49 225.834C1047.57 220.99 1053.66 213.941 1059.76 204.687C1066.22 194.896 1070.49 186.074 1072.59 178.221C1074.82 170.457 1074.92 163.595 1072.89 157.635C1071.07 151.629 1067.08 146.593 1060.91 142.525C1055.01 138.635 1048.99 136.973 1042.84 137.539C1036.78 137.971 1030.67 140.676 1024.5 145.654C1018.34 150.631 1012.16 157.814 1005.97 167.203C1001.28 174.312 997.708 180.902 995.244 186.975C992.914 193.135 991.696 198.778 991.589 203.902C991.704 208.981 992.931 213.542 995.268 217.584C997.606 221.627 1001.12 225.195 1005.82 228.29ZM1103.08 358.392C1095.92 349.721 1090.84 340.791 1087.84 331.604C1084.83 322.416 1084 313.208 1085.34 303.979C1086.68 294.749 1090.24 285.561 1096.02 276.413C1101.9 267.39 1109.98 258.634 1120.26 250.144C1134.88 238.075 1148.84 230.508 1162.14 227.442C1175.67 224.398 1188.32 225.206 1200.08 229.867C1211.95 234.652 1222.53 242.681 1231.84 253.954C1239 262.626 1244.03 271.493 1246.93 280.557C1250.06 289.642 1250.95 298.799 1249.61 308.028C1248.28 317.258 1244.6 326.435 1238.6 335.561C1232.82 344.708 1224.66 353.629 1214.13 362.323C1203.48 371.119 1193 377.478 1182.7 381.401C1172.5 385.448 1162.64 387.131 1153.12 386.45C1143.7 385.893 1134.71 383.209 1126.16 378.398C1117.83 373.608 1110.14 366.94 1103.08 358.392ZM1128.71 339.102C1133.32 344.677 1138.46 348.135 1144.15 349.478C1150.07 350.842 1156.53 350.089 1163.54 347.221C1170.77 344.374 1178.66 339.422 1187.21 332.365C1196.25 324.899 1202.93 317.72 1207.24 310.828C1211.65 304.06 1213.76 297.529 1213.56 291.234C1213.59 284.961 1211.25 278.975 1206.55 273.276C1202.05 267.826 1196.78 264.469 1190.73 263.208C1184.82 261.844 1178.18 262.636 1170.82 265.585C1163.47 268.534 1155.45 273.589 1146.78 280.748C1140.22 286.169 1134.86 291.421 1130.73 296.503C1126.69 301.709 1123.87 306.746 1122.27 311.613C1120.89 316.502 1120.72 321.222 1121.77 325.773C1122.82 330.323 1125.13 334.766 1128.71 339.102ZM1167.23 442.946L1197.14 430.136L1213.36 468.012C1215.77 473.623 1219.16 478.286 1223.55 481.999C1228 485.859 1233.88 487.97 1241.2 488.329C1248.67 488.626 1258.16 486.307 1269.68 481.372C1277.95 477.829 1284.54 474.044 1289.46 470.016C1294.37 465.987 1297.79 461.727 1299.71 457.234C1301.84 452.826 1302.7 448.09 1302.28 443.028C1301.92 438.113 1300.54 432.85 1298.13 427.238L1283.52 393.128L1313.42 380.317L1327.37 412.877C1334.77 430.154 1337.94 445.49 1336.86 458.885C1335.78 472.279 1330.96 483.87 1322.39 493.656C1313.98 503.379 1302.31 511.435 1287.4 517.825C1275.88 522.759 1265.34 525.7 1255.79 526.648C1246.29 527.744 1237.69 527.237 1229.97 525.126C1222.25 523.016 1215.45 519.808 1209.59 515.504C1203.73 511.201 1198.67 506.116 1194.41 500.251C1190.15 494.387 1186.66 488.28 1183.93 481.93L1167.23 442.946ZM1160.21 426.555L1306.4 363.926L1321.77 399.809L1175.58 462.438L1160.21 426.555Z"/>
</mask>
<path d="M336.729 1094.26L216.586 1198.47L191.008 1168.98L242.341 1124.46C235.347 1120.32 228.195 1117.59 220.887 1116.27C213.351 1114.94 205.909 1114.7 198.561 1115.54C191.213 1116.39 184.035 1118.04 177.027 1120.5C169.898 1123.07 163.19 1126.12 156.903 1129.66L128.166 1096.53C136.346 1091.99 144.742 1088.43 153.352 1085.85C161.736 1083.26 170.265 1081.82 178.941 1081.52C187.617 1081.23 196.326 1082.07 205.067 1084.06C213.687 1086.15 222.272 1089.55 230.82 1094.26L232.276 1092.99C225.249 1086.12 220.418 1079.57 217.785 1073.35C215.031 1067.23 213.795 1061.39 214.075 1055.83C214.356 1050.27 215.641 1045.01 217.929 1040.05C219.991 1035.07 222.377 1030.34 225.086 1025.86L246.571 990.322L274.992 1023.09L254.233 1053.22C250.812 1058.1 248.661 1062.73 247.78 1067.11C246.674 1071.47 246.882 1075.75 248.405 1079.96C249.928 1084.17 252.795 1088.7 257.006 1093.56L266.005 1103.93L311.15 1064.77L336.729 1094.26ZM200.894 893.406L56.612 960.313L40.1894 924.898L184.471 857.991L200.894 893.406ZM240.937 979.756L96.6547 1046.66L80.2321 1011.25L224.514 944.342L240.937 979.756ZM170.958 980.067L141.227 993.854L104.834 915.374L134.564 901.587L170.958 980.067ZM180.525 848.823L15.5222 818.758L8.31635 768.67L158.187 693.55L164.192 735.29L43.096 788.742L43.3019 790.173L174.589 807.56L180.525 848.823ZM148.33 823.024L121.139 826.935L106.693 726.521L133.884 722.609L148.33 823.024ZM159.169 683.551L1.06087 666.358L5.28108 627.549L163.389 644.743L159.169 683.551ZM159.898 676.844L126.839 673.249L136.869 581.019L169.928 584.614L159.898 676.844ZM172.613 573.839L19.1272 532.175L29.4167 494.269L182.903 535.932L172.613 573.839ZM197.575 501.98L168.395 487.599L186.612 450.638C189.31 445.163 190.643 439.551 190.61 433.804C190.648 427.912 188.424 422.07 183.936 416.276C179.304 410.411 171.369 404.709 160.129 399.17C152.06 395.193 144.897 392.647 138.64 391.533C132.383 390.42 126.924 390.595 122.262 392.058C117.528 393.307 113.375 395.737 109.803 399.35C106.303 402.819 103.203 407.291 100.504 412.767L84.099 446.053L54.9196 431.671L70.5793 399.898C78.8885 383.039 88.4807 370.663 99.3558 362.769C110.231 354.876 122.171 351 135.176 351.141C148.036 351.211 161.743 354.832 176.297 362.005C187.536 367.545 196.624 373.635 203.559 380.277C210.565 386.775 215.777 393.642 219.195 400.879C222.613 408.116 224.595 415.36 225.139 422.614C225.684 429.867 225.114 437.019 223.43 444.069C221.746 451.119 219.377 457.743 216.324 463.939L197.575 501.98ZM189.691 517.975L47.0364 447.666L64.2941 412.651L206.949 482.96L189.691 517.975ZM288.111 347.462L186.014 225.519L230.911 187.929L328.405 253.699L328.774 253.389L280.612 146.317L323.107 110.737L425.204 232.68L397.49 255.884L320.608 164.057L320.238 164.367L369.591 279.243L343.355 301.209L239.313 232.122L238.943 232.431L315.825 324.258L288.111 347.462ZM432.682 226.827L425.357 59.2671L472.594 41.119L579.118 170.567L539.754 185.691L460.747 79.4874L459.397 80.0059L471.597 211.876L432.682 226.827ZM450.689 189.706L440.837 164.063L535.537 127.68L545.389 153.323L450.689 189.706ZM684.045 162.552L672.117 3.95952L711.044 1.03167L722.972 159.624L684.045 162.552ZM589.13 169.691L577.202 11.0984L616.129 8.17057L628.057 166.763L589.13 169.691ZM613.434 104.067L610.976 71.3873L697.24 64.899L699.698 97.5787L613.434 104.067ZM741.327 161.342L780.869 7.29574L837.586 21.8542L840.997 139.408L841.464 139.528L900.371 37.9703L954.054 51.7499L914.513 205.796L879.502 196.81L909.278 80.808L908.811 80.6882L844.258 187.763L811.115 179.256L806.58 54.447L806.114 54.3272L776.338 170.329L741.327 161.342ZM986.97 254.252C977.581 248.063 970.104 241.017 964.538 233.115C958.972 225.213 955.475 216.654 954.046 207.438C952.617 198.222 953.324 188.394 956.166 177.953C959.143 167.601 964.3 156.858 971.639 145.726C982.073 129.899 993.198 118.569 1005.01 111.736C1017.05 104.857 1029.38 101.919 1042 102.923C1054.74 104.016 1067.22 108.586 1079.43 116.632C1088.81 122.821 1096.22 129.823 1101.66 137.637C1107.31 145.405 1110.85 153.897 1112.28 163.112C1113.71 172.328 1112.89 182.179 1109.83 192.666C1106.98 203.106 1101.81 214.027 1094.29 225.428C1086.69 236.962 1078.53 246.116 1069.84 252.889C1061.27 259.75 1052.34 264.252 1043.04 266.394C1033.87 268.624 1024.49 268.695 1014.9 266.606C1005.54 264.471 996.224 260.353 986.97 254.252ZM1005.82 228.29C1011.85 232.269 1017.79 234.065 1023.62 233.679C1029.68 233.246 1035.64 230.631 1041.49 225.834C1047.57 220.99 1053.66 213.941 1059.76 204.687C1066.22 194.896 1070.49 186.074 1072.59 178.221C1074.82 170.457 1074.92 163.595 1072.89 157.635C1071.07 151.629 1067.08 146.593 1060.91 142.525C1055.01 138.635 1048.99 136.973 1042.84 137.539C1036.78 137.971 1030.67 140.676 1024.5 145.654C1018.34 150.631 1012.16 157.814 1005.97 167.203C1001.28 174.312 997.708 180.902 995.244 186.975C992.914 193.135 991.696 198.778 991.589 203.902C991.704 208.981 992.931 213.542 995.268 217.584C997.606 221.627 1001.12 225.195 1005.82 228.29ZM1103.08 358.392C1095.92 349.721 1090.84 340.791 1087.84 331.604C1084.83 322.416 1084 313.208 1085.34 303.979C1086.68 294.749 1090.24 285.561 1096.02 276.413C1101.9 267.39 1109.98 258.634 1120.26 250.144C1134.88 238.075 1148.84 230.508 1162.14 227.442C1175.67 224.398 1188.32 225.206 1200.08 229.867C1211.95 234.652 1222.53 242.681 1231.84 253.954C1239 262.626 1244.03 271.493 1246.93 280.557C1250.06 289.642 1250.95 298.799 1249.61 308.028C1248.28 317.258 1244.6 326.435 1238.6 335.561C1232.82 344.708 1224.66 353.629 1214.13 362.323C1203.48 371.119 1193 377.478 1182.7 381.401C1172.5 385.448 1162.64 387.131 1153.12 386.45C1143.7 385.893 1134.71 383.209 1126.16 378.398C1117.83 373.608 1110.14 366.94 1103.08 358.392ZM1128.71 339.102C1133.32 344.677 1138.46 348.135 1144.15 349.478C1150.07 350.842 1156.53 350.089 1163.54 347.221C1170.77 344.374 1178.66 339.422 1187.21 332.365C1196.25 324.899 1202.93 317.72 1207.24 310.828C1211.65 304.06 1213.76 297.529 1213.56 291.234C1213.59 284.961 1211.25 278.975 1206.55 273.276C1202.05 267.826 1196.78 264.469 1190.73 263.208C1184.82 261.844 1178.18 262.636 1170.82 265.585C1163.47 268.534 1155.45 273.589 1146.78 280.748C1140.22 286.169 1134.86 291.421 1130.73 296.503C1126.69 301.709 1123.87 306.746 1122.27 311.613C1120.89 316.502 1120.72 321.222 1121.77 325.773C1122.82 330.323 1125.13 334.766 1128.71 339.102ZM1167.23 442.946L1197.14 430.136L1213.36 468.012C1215.77 473.623 1219.16 478.286 1223.55 481.999C1228 485.859 1233.88 487.97 1241.2 488.329C1248.67 488.626 1258.16 486.307 1269.68 481.372C1277.95 477.829 1284.54 474.044 1289.46 470.016C1294.37 465.987 1297.79 461.727 1299.71 457.234C1301.84 452.826 1302.7 448.09 1302.28 443.028C1301.92 438.113 1300.54 432.85 1298.13 427.238L1283.52 393.128L1313.42 380.317L1327.37 412.877C1334.77 430.154 1337.94 445.49 1336.86 458.885C1335.78 472.279 1330.96 483.87 1322.39 493.656C1313.98 503.379 1302.31 511.435 1287.4 517.825C1275.88 522.759 1265.34 525.7 1255.79 526.648C1246.29 527.744 1237.69 527.237 1229.97 525.126C1222.25 523.016 1215.45 519.808 1209.59 515.504C1203.73 511.201 1198.67 506.116 1194.41 500.251C1190.15 494.387 1186.66 488.28 1183.93 481.93L1167.23 442.946ZM1160.21 426.555L1306.4 363.926L1321.77 399.809L1175.58 462.438L1160.21 426.555Z" fill="url(#paint0_linear_247_94)" fill-opacity="0.03"/>
<path d="M336.729 1094.26L337.359 1094.99L338.086 1094.36L337.455 1093.63L336.729 1094.26ZM216.586 1198.47L215.86 1199.1L216.49 1199.83L217.217 1199.2L216.586 1198.47ZM191.008 1168.98L190.377 1168.26L189.65 1168.89L190.281 1169.61L191.008 1168.98ZM242.341 1124.46L242.972 1125.18L243.98 1124.31L242.831 1123.63L242.341 1124.46ZM220.887 1116.27L221.057 1115.32L221.054 1115.32L220.887 1116.27ZM198.561 1115.54L198.671 1116.5V1116.5L198.561 1115.54ZM177.027 1120.5L176.708 1119.59L176.701 1119.6L177.027 1120.5ZM156.903 1129.66L156.176 1130.29L156.69 1130.89L157.375 1130.5L156.903 1129.66ZM128.166 1096.53L127.699 1095.69L126.662 1096.27L127.439 1097.16L128.166 1096.53ZM153.352 1085.85L153.628 1086.77L153.636 1086.77L153.352 1085.85ZM178.941 1081.52L178.974 1082.48V1082.48L178.941 1081.52ZM205.067 1084.06L205.294 1083.12L205.281 1083.12L205.067 1084.06ZM230.82 1094.26L230.356 1095.1L230.944 1095.42L231.451 1094.98L230.82 1094.26ZM232.276 1092.99L232.907 1093.72L233.696 1093.04L232.949 1092.31L232.276 1092.99ZM217.785 1073.35L218.672 1072.97L218.667 1072.96L218.663 1072.95L217.785 1073.35ZM214.076 1055.83L215.036 1055.88V1055.88L214.076 1055.83ZM217.929 1040.05L218.803 1040.45L218.811 1040.43L218.818 1040.41L217.929 1040.05ZM225.086 1025.86L225.909 1026.36L225.91 1026.36L225.086 1025.86ZM246.571 990.322L247.298 989.691L246.432 988.693L245.748 989.824L246.571 990.322ZM274.992 1023.09L275.784 1023.63L276.207 1023.02L275.719 1022.46L274.992 1023.09ZM254.233 1053.22L255.021 1053.77L255.026 1053.76L254.233 1053.22ZM247.78 1067.11L248.713 1067.34L248.719 1067.32L248.724 1067.3L247.78 1067.11ZM248.405 1079.96L249.31 1079.63V1079.63L248.405 1079.96ZM266.005 1103.93L265.279 1104.56L265.909 1105.29L266.636 1104.66L266.005 1103.93ZM311.15 1064.77L311.877 1064.14L311.246 1063.42L310.519 1064.05L311.15 1064.77ZM336.729 1094.26L336.098 1093.54L215.956 1197.75L216.586 1198.47L217.217 1199.2L337.359 1094.99L336.729 1094.26ZM216.586 1198.47L217.313 1197.84L191.735 1168.35L191.008 1168.98L190.281 1169.61L215.86 1199.1L216.586 1198.47ZM191.008 1168.98L191.638 1169.71L242.972 1125.18L242.341 1124.46L241.711 1123.73L190.377 1168.26L191.008 1168.98ZM242.341 1124.46L242.831 1123.63C235.748 1119.44 228.489 1116.66 221.057 1115.32L220.887 1116.27L220.716 1117.22C227.902 1118.51 234.946 1121.2 241.851 1125.29L242.341 1124.46ZM220.887 1116.27L221.054 1115.32C213.43 1113.98 205.895 1113.73 198.451 1114.58L198.561 1115.54L198.671 1116.5C205.924 1115.66 213.272 1115.9 220.719 1117.22L220.887 1116.27ZM198.561 1115.54L198.451 1114.58C191.031 1115.44 183.783 1117.11 176.708 1119.59L177.027 1120.5L177.346 1121.41C184.286 1118.97 191.394 1117.33 198.671 1116.5L198.561 1115.54ZM177.027 1120.5L176.701 1119.6C169.524 1122.18 162.767 1125.26 156.431 1128.83L156.903 1129.66L157.375 1130.5C163.613 1126.99 170.272 1123.96 177.353 1121.41L177.027 1120.5ZM156.903 1129.66L157.63 1129.03L128.893 1095.9L128.166 1096.53L127.439 1097.16L156.176 1130.29L156.903 1129.66ZM128.166 1096.53L128.633 1097.38C136.756 1092.86 145.087 1089.33 153.628 1086.77L153.352 1085.85L153.076 1084.93C144.397 1087.53 135.937 1091.12 127.699 1095.69L128.166 1096.53ZM153.352 1085.85L153.636 1086.77C161.939 1084.2 170.384 1082.77 178.974 1082.48L178.941 1081.52L178.908 1080.56C170.146 1080.86 161.532 1082.32 153.068 1084.93L153.352 1085.85ZM178.941 1081.52L178.974 1082.48C187.564 1082.19 196.19 1083.03 204.854 1085L205.067 1084.06L205.281 1083.12C196.461 1081.12 187.67 1080.26 178.908 1080.56L178.941 1081.52ZM205.067 1084.06L204.84 1084.99C213.37 1087.06 221.875 1090.43 230.356 1095.1L230.82 1094.26L231.284 1093.42C222.669 1088.67 214.005 1085.24 205.294 1083.12L205.067 1084.06ZM230.82 1094.26L231.451 1094.98L232.907 1093.72L232.276 1092.99L231.646 1092.27L230.19 1093.53L230.82 1094.26ZM232.276 1092.99L232.949 1092.31C225.975 1085.48 221.238 1079.04 218.672 1072.97L217.785 1073.35L216.899 1073.72C219.599 1080.1 224.523 1086.75 231.603 1093.68L232.276 1092.99ZM217.785 1073.35L218.663 1072.95C215.958 1066.94 214.765 1061.26 215.036 1055.88L214.076 1055.83L213.114 1055.78C212.824 1061.52 214.104 1067.51 216.908 1073.74L217.785 1073.35ZM214.076 1055.83L215.036 1055.88C215.311 1050.44 216.567 1045.3 218.803 1040.45L217.929 1040.05L217.056 1039.64C214.715 1044.72 213.402 1050.1 213.114 1055.78L214.076 1055.83ZM217.929 1040.05L218.818 1040.41C220.862 1035.48 223.226 1030.8 225.909 1026.36L225.086 1025.86L224.263 1025.37C221.528 1029.89 219.12 1034.66 217.04 1039.68L217.929 1040.05ZM225.086 1025.86L225.91 1026.36L247.395 990.82L246.571 990.322L245.748 989.824L224.263 1025.37L225.086 1025.86ZM246.571 990.322L245.844 990.952L274.265 1023.72L274.992 1023.09L275.719 1022.46L247.298 989.691L246.571 990.322ZM274.992 1023.09L274.2 1022.54L253.441 1052.67L254.233 1053.22L255.026 1053.76L275.784 1023.63L274.992 1023.09ZM254.233 1053.22L253.445 1052.66C249.972 1057.62 247.751 1062.37 246.837 1066.92L247.78 1067.11L248.724 1067.3C249.571 1063.08 251.652 1058.58 255.021 1053.77L254.233 1053.22ZM247.78 1067.11L246.848 1066.87C245.694 1071.42 245.911 1075.9 247.5 1080.29L248.405 1079.96L249.31 1079.63C247.852 1075.61 247.653 1071.52 248.713 1067.34L247.78 1067.11ZM248.405 1079.96L247.5 1080.29C249.077 1084.65 252.022 1089.28 256.279 1094.19L257.006 1093.56L257.732 1092.92C253.568 1088.12 250.779 1083.69 249.31 1079.63L248.405 1079.96ZM257.006 1093.56L256.279 1094.19L265.279 1104.56L266.005 1103.93L266.732 1103.3L257.732 1092.92L257.006 1093.56ZM266.005 1103.93L266.636 1104.66L311.78 1065.5L311.15 1064.77L310.519 1064.05L265.375 1103.2L266.005 1103.93ZM311.15 1064.77L310.423 1065.4L336.002 1094.89L336.729 1094.26L337.455 1093.63L311.877 1064.14L311.15 1064.77ZM200.894 893.406L201.299 894.279L202.172 893.874L201.767 893.001L200.894 893.406ZM56.612 960.313L55.7391 960.717L56.1438 961.59L57.0168 961.186L56.612 960.313ZM40.1894 924.898L39.7846 924.025L38.9117 924.43L39.3165 925.303L40.1894 924.898ZM184.471 857.991L185.344 857.586L184.939 856.713L184.066 857.118L184.471 857.991ZM240.937 979.756L241.341 980.629L242.214 980.224L241.81 979.352L240.937 979.756ZM96.6547 1046.66L95.7818 1047.07L96.1866 1047.94L97.0595 1047.54L96.6547 1046.66ZM80.2321 1011.25L79.8273 1010.38L78.9544 1010.78L79.3592 1011.65L80.2321 1011.25ZM224.514 944.342L225.387 943.937L224.982 943.064L224.109 943.469L224.514 944.342ZM170.958 980.067L171.362 980.94L172.235 980.535L171.831 979.663L170.958 980.067ZM141.227 993.854L140.354 994.259L140.759 995.132L141.632 994.727L141.227 993.854ZM104.834 915.374L104.429 914.501L103.556 914.905L103.961 915.778L104.834 915.374ZM134.564 901.587L135.437 901.182L135.032 900.309L134.16 900.714L134.564 901.587ZM200.894 893.406L200.489 892.533L56.2072 959.44L56.612 960.313L57.0168 961.186L201.299 894.279L200.894 893.406ZM56.612 960.313L57.4849 959.908L41.0623 924.493L40.1894 924.898L39.3165 925.303L55.7391 960.717L56.612 960.313ZM40.1894 924.898L40.5942 925.771L184.876 858.864L184.471 857.991L184.066 857.118L39.7846 924.025L40.1894 924.898ZM184.471 857.991L183.598 858.396L200.021 893.811L200.894 893.406L201.767 893.001L185.344 857.586L184.471 857.991ZM240.937 979.756L240.532 978.883L96.2499 1045.79L96.6547 1046.66L97.0595 1047.54L241.341 980.629L240.937 979.756ZM96.6547 1046.66L97.5276 1046.26L81.1051 1010.84L80.2321 1011.25L79.3592 1011.65L95.7818 1047.07L96.6547 1046.66ZM80.2321 1011.25L80.6369 1012.12L224.919 945.215L224.514 944.342L224.109 943.469L79.8273 1010.38L80.2321 1011.25ZM224.514 944.342L223.641 944.746L240.064 980.161L240.937 979.756L241.81 979.352L225.387 943.937L224.514 944.342ZM170.958 980.067L170.553 979.194L140.822 992.981L141.227 993.854L141.632 994.727L171.362 980.94L170.958 980.067ZM141.227 993.854L142.1 993.449L105.706 914.969L104.834 915.374L103.961 915.778L140.354 994.259L141.227 993.854ZM104.834 915.374L105.238 916.247L134.969 902.46L134.564 901.587L134.16 900.714L104.429 914.501L104.834 915.374ZM134.564 901.587L133.691 901.992L170.085 980.472L170.958 980.067L171.831 979.663L135.437 901.182L134.564 901.587ZM180.525 848.823L180.353 849.77L181.668 850.009L181.477 848.686L180.525 848.823ZM15.5222 818.758L14.5698 818.895L14.6684 819.581L15.3497 819.705L15.5222 818.758ZM8.31636 768.67L7.88518 767.81L7.26518 768.121L7.36394 768.807L8.31636 768.67ZM158.187 693.55L159.139 693.413L158.949 692.092L157.756 692.69L158.187 693.55ZM164.192 735.29L164.58 736.171L165.248 735.876L165.144 735.153L164.192 735.29ZM43.096 788.742L42.7075 787.862L42.0397 788.157L42.1436 788.879L43.096 788.742ZM43.3019 790.173L42.3495 790.31L42.4533 791.032L43.1756 791.127L43.3019 790.173ZM174.589 807.56L175.541 807.423L175.437 806.702L174.715 806.606L174.589 807.56ZM148.33 823.023L148.467 823.976L149.419 823.839L149.282 822.887L148.33 823.023ZM121.139 826.935L120.187 827.072L120.324 828.025L121.276 827.888L121.139 826.935ZM106.693 726.521L106.556 725.568L105.604 725.705L105.741 726.658L106.693 726.521ZM133.884 722.609L134.836 722.472L134.699 721.52L133.747 721.657L133.884 722.609ZM180.525 848.823L180.697 847.876L15.6947 817.812L15.5222 818.758L15.3497 819.705L180.353 849.77L180.525 848.823ZM15.5222 818.758L16.4746 818.621L9.26877 768.533L8.31636 768.67L7.36394 768.807L14.5698 818.895L15.5222 818.758ZM8.31636 768.67L8.74752 769.531L158.618 694.41L158.187 693.55L157.756 692.69L7.88518 767.81L8.31636 768.67ZM158.187 693.55L157.234 693.687L163.239 735.427L164.192 735.29L165.144 735.153L159.139 693.413L158.187 693.55ZM164.192 735.29L163.803 734.41L42.7075 787.862L43.096 788.742L43.4846 789.623L164.58 736.171L164.192 735.29ZM43.096 788.742L42.1436 788.879L42.3495 790.31L43.3019 790.173L44.2543 790.036L44.0484 788.605L43.096 788.742ZM43.3019 790.173L43.1756 791.127L174.462 808.514L174.589 807.56L174.715 806.606L43.4282 789.219L43.3019 790.173ZM174.589 807.56L173.636 807.697L179.573 848.96L180.525 848.823L181.477 848.686L175.541 807.423L174.589 807.56ZM148.33 823.023L148.193 822.071L121.002 825.983L121.139 826.935L121.276 827.888L148.467 823.976L148.33 823.023ZM121.139 826.935L122.091 826.798L107.645 726.384L106.693 726.521L105.741 726.658L120.187 827.072L121.139 826.935ZM106.693 726.521L106.83 727.473L134.021 723.561L133.884 722.609L133.747 721.657L106.556 725.568L106.693 726.521ZM133.884 722.609L132.931 722.746L147.377 823.161L148.33 823.023L149.282 822.887L134.836 722.472L133.884 722.609ZM159.169 683.551L159.065 684.508L160.022 684.612L160.126 683.655L159.169 683.551ZM1.06087 666.358L0.104286 666.254L0.000262307 667.21L0.956843 667.314L1.06087 666.358ZM5.28108 627.549L5.3851 626.593L4.42852 626.489L4.3245 627.445L5.28108 627.549ZM163.389 644.743L164.346 644.847L164.45 643.89L163.493 643.786L163.389 644.743ZM159.898 676.844L159.794 677.8L160.751 677.904L160.855 676.948L159.898 676.844ZM126.839 673.249L125.883 673.145L125.779 674.101L126.735 674.205L126.839 673.249ZM136.869 581.019L136.973 580.062L136.016 579.958L135.912 580.915L136.869 581.019ZM169.928 584.614L170.884 584.718L170.989 583.761L170.032 583.657L169.928 584.614ZM159.169 683.551L159.273 682.595L1.16489 665.401L1.06087 666.358L0.956843 667.314L159.065 684.508L159.169 683.551ZM1.06087 666.358L2.01745 666.462L6.23767 627.653L5.28108 627.549L4.3245 627.445L0.104286 666.254L1.06087 666.358ZM5.28108 627.549L5.17706 628.506L163.285 645.7L163.389 644.743L163.493 643.786L5.3851 626.593L5.28108 627.549ZM163.389 644.743L162.433 644.639L158.212 683.447L159.169 683.551L160.126 683.655L164.346 644.847L163.389 644.743ZM159.898 676.844L160.002 675.887L126.943 672.292L126.839 673.249L126.735 674.205L159.794 677.8L159.898 676.844ZM126.839 673.249L127.796 673.353L137.826 581.123L136.869 581.019L135.912 580.915L125.883 673.145L126.839 673.249ZM136.869 581.019L136.765 581.976L169.824 585.571L169.928 584.614L170.032 583.657L136.973 580.062L136.869 581.019ZM169.928 584.614L168.971 584.51L158.942 676.74L159.898 676.844L160.855 676.948L170.884 584.718L169.928 584.614ZM172.613 573.839L172.361 574.767L173.29 575.019L173.542 574.091L172.613 573.839ZM19.1272 532.175L18.1985 531.923L17.9465 532.852L18.8751 533.104L19.1272 532.175ZM29.4167 494.269L29.6688 493.34L28.7402 493.088L28.4881 494.017L29.4167 494.269ZM182.903 535.932L183.831 536.184L184.083 535.256L183.155 535.003L182.903 535.932ZM172.613 573.839L172.865 572.91L19.3792 531.247L19.1272 532.175L18.8751 533.104L172.361 574.767L172.613 573.839ZM19.1272 532.175L20.0558 532.427L30.3454 494.521L29.4167 494.269L28.4881 494.017L18.1985 531.923L19.1272 532.175ZM29.4167 494.269L29.1647 495.197L182.651 536.861L182.903 535.932L183.155 535.003L29.6688 493.34L29.4167 494.269ZM182.903 535.932L181.974 535.68L171.685 573.586L172.613 573.839L173.542 574.091L183.831 536.184L182.903 535.932ZM197.575 501.98L197.149 502.843L198.012 503.269L198.438 502.406L197.575 501.98ZM168.395 487.599L167.532 487.173L167.107 488.037L167.97 488.462L168.395 487.599ZM190.61 433.804L189.648 433.797L189.648 433.809L190.61 433.804ZM183.936 416.276L184.697 415.687L184.691 415.68L183.936 416.276ZM138.64 391.534L138.809 390.586V390.586L138.64 391.534ZM122.262 392.058L122.508 392.989L122.529 392.983L122.551 392.976L122.262 392.058ZM109.803 399.35L110.481 400.034L110.488 400.027L109.803 399.35ZM100.504 412.767L99.6413 412.341L100.504 412.767ZM84.099 446.053L83.6736 446.916L84.5367 447.341L84.9621 446.478L84.099 446.053ZM54.9196 431.671L54.0565 431.246L53.6311 432.109L54.4942 432.534L54.9196 431.671ZM70.5793 399.898L69.7162 399.473L70.5793 399.898ZM99.3558 362.769L98.7906 361.991V361.991L99.3558 362.769ZM135.176 351.141L135.165 352.103L135.17 352.103L135.176 351.141ZM176.297 362.005L175.872 362.868L176.297 362.005ZM203.559 380.277L202.893 380.972L202.899 380.977L202.905 380.983L203.559 380.277ZM225.139 422.614L224.18 422.686V422.686L225.139 422.614ZM223.43 444.069L222.494 443.846V443.846L223.43 444.069ZM189.691 517.975L189.266 518.838L190.129 519.263L190.555 518.4L189.691 517.975ZM47.0364 447.666L46.1734 447.241L45.748 448.104L46.6111 448.529L47.0364 447.666ZM64.2941 412.651L64.7195 411.788L63.8564 411.362L63.431 412.225L64.2941 412.651ZM206.949 482.96L207.812 483.385L208.238 482.522L207.374 482.096L206.949 482.96ZM197.575 501.98L198 501.117L168.821 486.736L168.395 487.599L167.97 488.462L197.149 502.843L197.575 501.98ZM168.395 487.599L169.258 488.024L187.475 451.064L186.612 450.638L185.748 450.213L167.532 487.173L168.395 487.599ZM186.612 450.638L187.475 451.064C190.235 445.462 191.606 439.704 191.572 433.798L190.61 433.804L189.648 433.809C189.68 439.398 188.385 444.863 185.748 450.213L186.612 450.638ZM190.61 433.804L191.572 433.81C191.612 427.655 189.283 421.608 184.697 415.687L183.936 416.276L183.175 416.865C187.564 422.531 189.684 428.17 189.648 433.797L190.61 433.804ZM183.936 416.276L184.691 415.68C179.93 409.651 171.847 403.872 160.555 398.307L160.129 399.17L159.704 400.033C170.891 405.546 178.679 411.171 183.181 416.872L183.936 416.276ZM160.129 399.17L160.555 398.307C152.435 394.305 145.183 391.721 138.809 390.586L138.64 391.534L138.471 392.481C144.611 393.574 151.685 396.08 159.704 400.033L160.129 399.17ZM138.64 391.534L138.809 390.586C132.444 389.453 126.821 389.619 121.974 391.14L122.262 392.058L122.551 392.976C127.027 391.571 132.323 391.386 138.471 392.481L138.64 391.534ZM122.262 392.058L122.017 391.128C117.11 392.422 112.807 394.943 109.119 398.674L109.803 399.35L110.488 400.027C113.943 396.532 117.946 394.192 122.508 392.989L122.262 392.058ZM109.803 399.35L109.126 398.667C105.534 402.226 102.376 406.792 99.6413 412.341L100.504 412.767L101.367 413.192C104.03 407.79 107.071 403.412 110.481 400.034L109.803 399.35ZM100.504 412.767L99.6413 412.341L83.2359 445.627L84.099 446.053L84.9621 446.478L101.367 413.192L100.504 412.767ZM84.099 446.053L84.5244 445.19L55.3449 430.808L54.9196 431.671L54.4942 432.534L83.6736 446.916L84.099 446.053ZM54.9196 431.671L55.7826 432.097L71.4423 400.324L70.5793 399.898L69.7162 399.473L54.0565 431.246L54.9196 431.671ZM70.5793 399.898L71.4423 400.324C79.7085 383.552 89.2127 371.32 99.921 363.548L99.3558 362.769L98.7906 361.991C87.7486 370.005 78.0685 382.526 69.7162 399.473L70.5793 399.898ZM99.3558 362.769L99.921 363.548C110.635 355.772 122.374 351.964 135.165 352.103L135.176 351.141L135.186 350.179C121.967 350.035 109.827 353.98 98.7906 361.991L99.3558 362.769ZM135.176 351.141L135.17 352.103C147.852 352.172 161.415 355.743 175.872 362.868L176.297 362.005L176.722 361.142C162.071 353.921 148.22 350.25 135.181 350.179L135.176 351.141ZM176.297 362.005L175.872 362.868C187.048 368.377 196.047 374.415 202.893 380.972L203.559 380.277L204.224 379.582C197.2 372.855 188.025 366.713 176.722 361.142L176.297 362.005ZM203.559 380.277L202.905 380.983C209.838 387.413 214.969 394.183 218.325 401.29L219.195 400.879L220.065 400.468C216.586 393.101 211.292 386.137 204.213 379.572L203.559 380.277ZM219.195 400.879L218.325 401.29C221.698 408.431 223.645 415.561 224.18 422.686L225.139 422.614L226.099 422.542C225.545 415.16 223.529 407.8 220.065 400.468L219.195 400.879ZM225.139 422.614L224.18 422.686C224.717 429.84 224.155 436.892 222.494 443.846L223.43 444.069L224.366 444.293C226.073 437.145 226.651 429.894 226.099 422.542L225.139 422.614ZM223.43 444.069L222.494 443.846C220.826 450.83 218.481 457.385 215.461 463.513L216.324 463.939L217.187 464.364C220.274 458.101 222.666 451.409 224.366 444.293L223.43 444.069ZM216.324 463.939L215.461 463.513L196.711 501.555L197.575 501.98L198.438 502.406L217.187 464.364L216.324 463.939ZM189.691 517.975L190.117 517.112L47.4618 446.803L47.0364 447.666L46.6111 448.529L189.266 518.838L189.691 517.975ZM47.0364 447.666L47.8995 448.091L65.1572 413.076L64.2941 412.651L63.431 412.225L46.1734 447.241L47.0364 447.666ZM64.2941 412.651L63.8687 413.514L206.524 483.823L206.949 482.96L207.374 482.096L64.7195 411.788L64.2941 412.651ZM206.949 482.96L206.086 482.534L188.828 517.549L189.691 517.975L190.555 518.4L207.812 483.385L206.949 482.96ZM288.111 347.462L287.373 348.08L287.991 348.817L288.729 348.2L288.111 347.462ZM186.014 225.519L185.396 224.781L184.659 225.399L185.276 226.137L186.014 225.519ZM230.911 187.929L231.449 187.131L230.849 186.726L230.293 187.191L230.911 187.929ZM328.405 253.699L327.866 254.496L328.467 254.901L329.022 254.436L328.405 253.699ZM328.774 253.389L329.392 254.127L329.951 253.659L329.652 252.995L328.774 253.389ZM280.612 146.317L279.994 145.579L279.436 146.047L279.734 146.711L280.612 146.317ZM323.107 110.737L323.845 110.12L323.227 109.382L322.489 110L323.107 110.737ZM425.204 232.68L425.822 233.418L426.56 232.8L425.942 232.062L425.204 232.68ZM397.49 255.884L396.752 256.502L397.37 257.239L398.108 256.622L397.49 255.884ZM320.608 164.057L321.346 163.44L320.728 162.702L319.99 163.32L320.608 164.057ZM320.238 164.367L319.621 163.629L319.072 164.089L319.354 164.747L320.238 164.367ZM369.591 279.243L370.209 279.98L370.758 279.521L370.475 278.863L369.591 279.243ZM343.355 301.209L342.822 302.01L343.421 302.408L343.972 301.947L343.355 301.209ZM239.313 232.122L239.845 231.32L239.246 230.923L238.695 231.384L239.313 232.122ZM238.943 232.431L238.325 231.694L237.588 232.311L238.205 233.049L238.943 232.431ZM315.825 324.258L316.443 324.996L317.181 324.378L316.563 323.64L315.825 324.258ZM288.111 347.462L288.849 346.844L186.752 224.901L186.014 225.519L185.276 226.137L287.373 348.08L288.111 347.462ZM186.014 225.519L186.632 226.257L231.529 188.667L230.911 187.929L230.293 187.191L185.396 224.781L186.014 225.519ZM230.911 187.929L230.373 188.727L327.866 254.496L328.405 253.699L328.943 252.901L231.449 187.131L230.911 187.929ZM328.405 253.699L329.022 254.436L329.392 254.127L328.774 253.389L328.156 252.652L327.787 252.961L328.405 253.699ZM328.774 253.389L329.652 252.995L281.49 145.922L280.612 146.317L279.734 146.711L327.897 253.784L328.774 253.389ZM280.612 146.317L281.23 147.054L323.725 111.475L323.107 110.737L322.489 110L279.994 145.579L280.612 146.317ZM323.107 110.737L322.369 111.355L424.466 233.298L425.204 232.68L425.942 232.062L323.845 110.12L323.107 110.737ZM425.204 232.68L424.586 231.942L396.872 255.146L397.49 255.884L398.108 256.622L425.822 233.418L425.204 232.68ZM397.49 255.884L398.228 255.266L321.346 163.44L320.608 164.057L319.87 164.675L396.752 256.502L397.49 255.884ZM320.608 164.057L319.99 163.32L319.621 163.629L320.238 164.367L320.856 165.105L321.225 164.795L320.608 164.057ZM320.238 164.367L319.354 164.747L368.707 279.622L369.591 279.243L370.475 278.863L321.122 163.987L320.238 164.367ZM369.591 279.243L368.973 278.505L342.737 300.471L343.355 301.209L343.972 301.947L370.209 279.98L369.591 279.243ZM343.355 301.209L343.887 300.407L239.845 231.32L239.313 232.122L238.78 232.924L342.822 302.01L343.355 301.209ZM239.313 232.122L238.695 231.384L238.325 231.694L238.943 232.431L239.561 233.169L239.93 232.86L239.313 232.122ZM238.943 232.431L238.205 233.049L315.087 324.876L315.825 324.258L316.563 323.64L239.681 231.814L238.943 232.431ZM315.825 324.258L315.208 323.52L287.493 346.724L288.111 347.462L288.729 348.2L316.443 324.996L315.825 324.258ZM432.682 226.827L431.721 226.869L431.779 228.204L433.027 227.725L432.682 226.827ZM425.357 59.2671L425.012 58.3689L424.365 58.6173L424.396 59.3092L425.357 59.2671ZM472.594 41.119L473.337 40.5076L472.897 39.972L472.249 40.2207L472.594 41.119ZM579.118 170.567L579.464 171.465L580.71 170.987L579.861 169.956L579.118 170.567ZM539.754 185.691L538.982 186.265L539.418 186.851L540.099 186.589L539.754 185.691ZM460.747 79.4874L461.519 78.913L461.083 78.3274L460.401 78.5892L460.747 79.4874ZM459.397 80.0059L459.052 79.1077L458.372 79.369L458.439 80.0945L459.397 80.0059ZM471.597 211.876L471.942 212.774L472.622 212.513L472.555 211.787L471.597 211.876ZM450.689 189.706L449.791 190.051L450.136 190.949L451.034 190.604L450.689 189.706ZM440.837 164.063L440.492 163.165L439.594 163.51L439.939 164.408L440.837 164.063ZM535.537 127.68L536.435 127.335L536.09 126.437L535.192 126.782L535.537 127.68ZM545.389 153.323L545.734 154.221L546.632 153.876L546.287 152.978L545.389 153.323ZM432.682 226.827L433.644 226.785L426.318 59.2251L425.357 59.2671L424.396 59.3092L431.721 226.869L432.682 226.827ZM425.357 59.2671L425.702 60.1654L472.94 42.0172L472.594 41.119L472.249 40.2207L425.012 58.3689L425.357 59.2671ZM472.594 41.119L471.851 41.7304L578.375 171.179L579.118 170.567L579.861 169.956L473.337 40.5076L472.594 41.119ZM579.118 170.567L578.773 169.669L539.409 184.792L539.754 185.691L540.099 186.589L579.464 171.465L579.118 170.567ZM539.754 185.691L540.526 185.116L461.519 78.913L460.747 79.4874L459.975 80.0617L538.982 186.265L539.754 185.691ZM460.747 79.4874L460.401 78.5892L459.052 79.1077L459.397 80.0059L459.742 80.9041L461.092 80.3856L460.747 79.4874ZM459.397 80.0059L458.439 80.0945L470.639 211.965L471.597 211.876L472.555 211.787L460.355 79.9173L459.397 80.0059ZM471.597 211.876L471.252 210.978L432.337 225.928L432.682 226.827L433.027 227.725L471.942 212.774L471.597 211.876ZM450.689 189.706L451.587 189.361L441.735 163.718L440.837 164.063L439.939 164.408L449.791 190.051L450.689 189.706ZM440.837 164.063L441.182 164.961L535.882 128.578L535.537 127.68L535.192 126.782L440.492 163.165L440.837 164.063ZM535.537 127.68L534.639 128.025L544.49 153.668L545.389 153.323L546.287 152.978L536.435 127.335L535.537 127.68ZM545.389 153.323L545.044 152.425L450.344 188.808L450.689 189.706L451.034 190.604L545.734 154.221L545.389 153.323ZM684.045 162.552L683.085 162.624L683.158 163.583L684.117 163.511L684.045 162.552ZM672.117 3.95953L672.044 3L671.085 3.07218L671.157 4.03168L672.117 3.95953ZM711.044 1.03168L712.003 0.959507L711.931 4.58491e-06L710.972 0.0721497L711.044 1.03168ZM722.972 159.624L723.044 160.583L724.004 160.511L723.932 159.552L722.972 159.624ZM589.13 169.691L588.17 169.763L588.242 170.722L589.202 170.65L589.13 169.691ZM577.202 11.0984L577.129 10.1389L576.17 10.2111L576.242 11.1706L577.202 11.0984ZM616.129 8.17056L617.088 8.09841L617.016 7.13888L616.057 7.21106L616.129 8.17056ZM628.057 166.763L628.129 167.722L629.089 167.65L629.017 166.691L628.057 166.763ZM613.434 104.067L612.474 104.139L612.546 105.099L613.506 105.026L613.434 104.067ZM610.976 71.3873L610.904 70.4278L609.944 70.5L610.016 71.4595L610.976 71.3873ZM697.24 64.899L698.2 64.8269L698.128 63.8674L697.168 63.9395L697.24 64.899ZM699.698 97.5787L699.77 98.5382L700.73 98.466L700.658 97.5065L699.698 97.5787ZM684.045 162.552L685.004 162.48L673.076 3.88735L672.117 3.95953L671.157 4.03168L683.085 162.624L684.045 162.552ZM672.117 3.95953L672.189 4.91903L711.116 1.99118L711.044 1.03168L710.972 0.0721497L672.044 3L672.117 3.95953ZM711.044 1.03168L710.084 1.10383L722.013 159.696L722.972 159.624L723.932 159.552L712.003 0.959507L711.044 1.03168ZM722.972 159.624L722.9 158.664L683.973 161.592L684.045 162.552L684.117 163.511L723.044 160.583L722.972 159.624ZM589.13 169.691L590.089 169.619L578.161 11.0263L577.202 11.0984L576.242 11.1706L588.17 169.763L589.13 169.691ZM577.202 11.0984L577.274 12.0579L616.201 9.13009L616.129 8.17056L616.057 7.21106L577.129 10.1389L577.202 11.0984ZM616.129 8.17056L615.169 8.24274L627.097 166.835L628.057 166.763L629.017 166.691L617.088 8.09841L616.129 8.17056ZM628.057 166.763L627.985 165.803L589.058 168.731L589.13 169.691L589.202 170.65L628.129 167.722L628.057 166.763ZM613.434 104.067L614.393 103.995L611.935 71.3151L610.976 71.3873L610.016 71.4595L612.474 104.139L613.434 104.067ZM610.976 71.3873L611.048 72.3468L697.313 65.8585L697.24 64.899L697.168 63.9395L610.904 70.4278L610.976 71.3873ZM697.24 64.899L696.281 64.9712L698.739 97.6508L699.698 97.5787L700.658 97.5065L698.2 64.8269L697.24 64.899ZM699.698 97.5787L699.626 96.6191L613.362 103.107L613.434 104.067L613.506 105.026L699.77 98.5382L699.698 97.5787ZM741.327 161.342L740.395 161.103L740.156 162.035L741.088 162.274L741.327 161.342ZM780.869 7.29574L781.108 6.36374L780.176 6.1245L779.937 7.05652L780.869 7.29574ZM837.586 21.8542L838.547 21.8263L838.526 21.1023L837.825 20.9222L837.586 21.8542ZM840.997 139.408L840.035 139.436L840.056 140.16L840.757 140.34L840.997 139.408ZM841.464 139.528L841.224 140.46L841.93 140.641L842.296 140.011L841.464 139.528ZM900.371 37.9703L900.61 37.0383L899.905 36.8571L899.539 37.4876L900.371 37.9703ZM954.054 51.7499L954.986 51.9891L955.225 51.0572L954.293 50.8179L954.054 51.7499ZM914.513 205.796L914.273 206.728L915.205 206.967L915.445 206.035L914.513 205.796ZM879.502 196.81L878.57 196.57L878.331 197.502L879.263 197.742L879.502 196.81ZM909.278 80.808L910.21 81.0472L910.449 80.1152L909.517 79.876L909.278 80.808ZM908.811 80.6882L909.05 79.7562L908.357 79.5781L907.987 80.1914L908.811 80.6882ZM844.258 187.763L844.019 188.695L844.712 188.873L845.082 188.26L844.258 187.763ZM811.115 179.256L810.153 179.29L810.179 180.009L810.876 180.188L811.115 179.256ZM806.58 54.447L807.542 54.4121L807.516 53.6938L806.82 53.515L806.58 54.447ZM806.114 54.3272L806.353 53.3952L805.421 53.156L805.182 54.088L806.114 54.3272ZM776.338 170.329L776.098 171.261L777.03 171.5L777.27 170.568L776.338 170.329ZM741.327 161.342L742.259 161.581L781.801 7.53498L780.869 7.29574L779.937 7.05652L740.395 161.103L741.327 161.342ZM780.869 7.29574L780.629 8.22776L837.346 22.7862L837.586 21.8542L837.825 20.9222L781.108 6.36374L780.869 7.29574ZM837.586 21.8542L836.624 21.8821L840.035 139.436L840.997 139.408L841.959 139.381L838.547 21.8263L837.586 21.8542ZM840.997 139.408L840.757 140.34L841.224 140.46L841.464 139.528L841.703 138.596L841.236 138.476L840.997 139.408ZM841.464 139.528L842.296 140.011L901.203 38.4531L900.371 37.9703L899.539 37.4876L840.631 139.045L841.464 139.528ZM900.371 37.9703L900.132 38.9024L953.815 52.6819L954.054 51.7499L954.293 50.8179L900.61 37.0383L900.371 37.9703ZM954.054 51.7499L953.122 51.5107L913.581 205.557L914.513 205.796L915.445 206.035L954.986 51.9891L954.054 51.7499ZM914.513 205.796L914.752 204.864L879.741 195.878L879.502 196.81L879.263 197.742L914.273 206.728L914.513 205.796ZM879.502 196.81L880.434 197.049L910.21 81.0472L909.278 80.808L908.346 80.5688L878.57 196.57L879.502 196.81ZM909.278 80.808L909.517 79.876L909.05 79.7562L908.811 80.6882L908.572 81.6202L909.039 81.74L909.278 80.808ZM908.811 80.6882L907.987 80.1914L843.434 187.266L844.258 187.763L845.082 188.26L909.635 81.185L908.811 80.6882ZM844.258 187.763L844.497 186.831L811.354 178.323L811.115 179.256L810.876 180.188L844.019 188.695L844.258 187.763ZM811.115 179.256L812.076 179.221L807.542 54.4121L806.58 54.447L805.619 54.482L810.153 179.29L811.115 179.256ZM806.58 54.447L806.82 53.515L806.353 53.3952L806.114 54.3272L805.874 55.2592L806.341 55.3791L806.58 54.447ZM806.114 54.3272L805.182 54.088L775.406 170.089L776.338 170.329L777.27 170.568L807.046 54.5665L806.114 54.3272ZM776.338 170.329L776.577 169.397L741.566 160.41L741.327 161.342L741.088 162.274L776.098 171.261L776.338 170.329ZM964.538 233.115L963.751 233.669V233.669L964.538 233.115ZM954.046 207.438L954.997 207.29V207.29L954.046 207.438ZM956.166 177.953L955.242 177.687L955.238 177.7L956.166 177.953ZM1005.01 111.736L1004.54 110.9L1004.53 110.903L1005.01 111.736ZM1041.99 102.923L1042.08 101.965L1042.07 101.964L1041.99 102.923ZM1079.43 116.632L1078.9 117.435L1079.43 116.632ZM1101.66 137.637L1100.87 138.186L1100.87 138.194L1100.88 138.203L1101.66 137.637ZM1112.28 163.112L1111.33 163.26V163.26L1112.28 163.112ZM1109.83 192.666L1108.9 192.396L1108.9 192.404L1108.9 192.413L1109.83 192.666ZM1094.29 225.428L1093.49 224.898L1094.29 225.428ZM1069.84 252.889L1069.25 252.13L1069.24 252.138L1069.84 252.889ZM1043.04 266.394L1042.82 265.456L1042.81 265.459L1043.04 266.394ZM1014.9 266.606L1014.69 267.544L1014.7 267.546L1014.9 266.606ZM1005.82 228.29L1006.35 227.487L1005.82 228.29ZM1023.62 233.679L1023.69 234.639L1023.69 234.638L1023.62 233.679ZM1041.49 225.834L1040.89 225.081L1040.88 225.089L1041.49 225.834ZM1059.76 204.687L1058.96 204.157L1059.76 204.687ZM1072.59 178.221L1071.67 177.955L1071.67 177.964L1071.66 177.973L1072.59 178.221ZM1072.89 157.635L1071.97 157.913L1071.97 157.929L1071.98 157.946L1072.89 157.635ZM1042.84 137.539L1042.91 138.499L1042.92 138.498L1042.93 138.497L1042.84 137.539ZM1024.5 145.654L1025.11 146.403V146.403L1024.5 145.654ZM995.244 186.975L994.352 186.613L994.348 186.623L994.344 186.634L995.244 186.975ZM991.589 203.902L990.627 203.882L990.626 203.903L990.627 203.924L991.589 203.902ZM995.268 217.584L994.435 218.066V218.066L995.268 217.584ZM986.97 254.252L987.499 253.449C978.195 247.315 970.811 240.35 965.325 232.561L964.538 233.115L963.751 233.669C969.397 241.684 976.967 248.811 986.44 255.056L986.97 254.252ZM964.538 233.115L965.325 232.561C959.841 224.775 956.402 216.354 954.997 207.29L954.046 207.438L953.095 207.585C954.548 216.953 958.104 225.65 963.751 233.669L964.538 233.115ZM954.046 207.438L954.997 207.29C953.592 198.228 954.282 188.537 957.095 178.206L956.166 177.953L955.238 177.7C952.366 188.251 951.643 198.216 953.095 207.585L954.046 207.438ZM956.166 177.953L957.091 178.219C960.035 167.979 965.145 157.325 972.443 146.256L971.639 145.726L970.836 145.197C963.456 156.392 958.25 167.222 955.242 177.687L956.166 177.953ZM971.639 145.726L972.443 146.256C982.824 130.508 993.849 119.304 1005.5 112.569L1005.01 111.736L1004.53 110.903C992.547 117.835 981.322 129.291 970.836 145.197L971.639 145.726ZM1005.01 111.736L1005.49 112.571C1017.38 105.778 1029.52 102.895 1041.92 103.883L1041.99 102.923L1042.07 101.964C1029.25 100.943 1016.73 103.935 1004.54 110.9L1005.01 111.736ZM1041.99 102.923L1041.91 103.882C1054.48 104.959 1066.81 109.464 1078.9 117.435L1079.43 116.632L1079.96 115.828C1067.64 107.707 1055.01 103.073 1042.08 101.965L1041.99 102.923ZM1079.43 116.632L1078.9 117.435C1088.2 123.569 1095.52 130.489 1100.87 138.186L1101.66 137.637L1102.45 137.087C1096.93 129.157 1089.43 122.073 1079.96 115.828L1079.43 116.632ZM1101.66 137.637L1100.88 138.203C1106.45 145.851 1109.93 154.2 1111.33 163.26L1112.28 163.112L1113.23 162.965C1111.78 153.593 1108.18 144.958 1102.43 137.07L1101.66 137.637ZM1112.28 163.112L1111.33 163.26C1112.73 172.314 1111.94 182.022 1108.9 192.396L1109.83 192.666L1110.75 192.935C1113.85 182.337 1114.69 172.342 1113.23 162.965L1112.28 163.112ZM1109.83 192.666L1108.9 192.413C1106.09 202.733 1100.96 213.561 1093.49 224.898L1094.29 225.428L1095.09 225.957C1102.65 214.493 1107.88 203.479 1110.76 192.918L1109.83 192.666ZM1094.29 225.428L1093.49 224.898C1085.93 236.366 1077.84 245.435 1069.25 252.13L1069.84 252.889L1070.43 253.648C1079.23 246.797 1087.45 237.558 1095.09 225.957L1094.29 225.428ZM1069.84 252.889L1069.24 252.138C1060.77 258.922 1051.96 263.351 1042.82 265.456L1043.04 266.394L1043.26 267.332C1052.72 265.152 1061.78 260.578 1070.44 253.64L1069.84 252.889ZM1043.04 266.394L1042.81 265.459C1033.79 267.654 1024.56 267.725 1015.11 265.666L1014.9 266.606L1014.7 267.546C1024.43 269.665 1033.95 269.595 1043.27 267.329L1043.04 266.394ZM1014.9 266.606L1015.12 265.668C1005.88 263.562 996.672 259.496 987.499 253.449L986.97 254.252L986.44 255.056C995.776 261.21 1005.19 265.38 1014.69 267.544L1014.9 266.606ZM1005.82 228.29L1005.29 229.094C1011.46 233.16 1017.6 235.042 1023.69 234.639L1023.62 233.679L1023.56 232.719C1017.98 233.088 1012.25 231.378 1006.35 227.487L1005.82 228.29ZM1023.62 233.679L1023.69 234.638C1029.99 234.189 1036.13 231.47 1042.1 226.578L1041.49 225.834L1040.88 225.089C1035.14 229.792 1029.37 232.304 1023.55 232.719L1023.62 233.679ZM1041.49 225.834L1042.09 226.586C1048.28 221.659 1054.43 214.523 1060.57 205.216L1059.76 204.687L1058.96 204.157C1052.89 213.36 1046.87 220.321 1040.89 225.081L1041.49 225.834ZM1059.76 204.687L1060.57 205.216C1067.06 195.374 1071.39 186.456 1073.52 178.469L1072.59 178.221L1071.66 177.973C1069.6 185.692 1065.38 194.418 1058.96 204.157L1059.76 204.687ZM1072.59 178.221L1073.52 178.487C1075.79 170.587 1075.91 163.516 1073.8 157.324L1072.89 157.635L1071.98 157.946C1073.93 163.673 1073.86 170.327 1071.67 177.955L1072.59 178.221ZM1072.89 157.635L1073.81 157.357C1071.92 151.098 1067.77 145.89 1061.44 141.722L1060.91 142.525L1060.38 143.329C1066.4 147.295 1070.23 152.16 1071.97 157.913L1072.89 157.635ZM1060.91 142.525L1061.44 141.722C1055.39 137.729 1049.15 135.992 1042.75 136.581L1042.84 137.539L1042.93 138.497C1048.83 137.954 1054.64 139.54 1060.38 143.329L1060.91 142.525ZM1042.84 137.539L1042.77 136.579C1036.47 137.029 1030.17 139.841 1023.9 144.905L1024.5 145.654L1025.11 146.403C1031.17 141.511 1037.1 138.913 1042.91 138.499L1042.84 137.539ZM1024.5 145.654L1023.9 144.905C1017.63 149.965 1011.39 157.234 1005.17 166.674L1005.97 167.203L1006.77 167.733C1012.93 158.395 1019.04 151.298 1025.11 146.403L1024.5 145.654ZM1005.97 167.203L1005.17 166.674C1000.45 173.82 996.846 180.467 994.352 186.613L995.244 186.975L996.136 187.336C998.57 181.337 1002.11 174.803 1006.77 167.733L1005.97 167.203ZM995.244 186.975L994.344 186.634C991.986 192.87 990.737 198.622 990.627 203.882L991.589 203.902L992.551 203.922C992.655 198.934 993.843 193.401 996.144 187.315L995.244 186.975ZM991.589 203.902L990.627 203.924C990.745 209.15 992.01 213.871 994.435 218.066L995.268 217.584L996.101 217.103C993.851 213.212 992.663 208.812 992.551 203.881L991.589 203.902ZM995.268 217.584L994.435 218.066C996.862 222.262 1000.49 225.933 1005.29 229.094L1005.82 228.29L1006.35 227.487C1001.75 224.458 998.351 220.992 996.101 217.103L995.268 217.584ZM1087.84 331.604L1086.92 331.903V331.903L1087.84 331.604ZM1085.34 303.979L1086.29 304.117V304.117L1085.34 303.979ZM1096.02 276.413L1095.21 275.888L1095.2 275.899L1096.02 276.413ZM1162.14 227.442L1161.93 226.503L1161.93 226.504L1162.14 227.442ZM1200.08 229.867L1200.44 228.975L1200.44 228.972L1200.08 229.867ZM1246.93 280.557L1246.02 280.85L1246.02 280.86L1246.02 280.87L1246.93 280.557ZM1249.61 308.028L1248.66 307.89V307.89L1249.61 308.028ZM1238.6 335.561L1237.79 335.032L1237.79 335.04L1237.78 335.047L1238.6 335.561ZM1214.13 362.323L1214.75 363.065L1214.13 362.323ZM1182.7 381.401L1182.36 380.502L1182.34 380.507L1182.7 381.401ZM1153.12 386.45L1153.19 385.49L1153.17 385.489L1153.12 386.45ZM1126.16 378.398L1125.68 379.232L1125.69 379.236L1126.16 378.398ZM1144.15 349.478L1143.93 350.414L1143.94 350.415L1144.15 349.478ZM1163.54 347.221L1163.19 346.326L1163.18 346.331L1163.54 347.221ZM1207.24 310.828L1206.43 310.303L1206.43 310.31L1206.42 310.318L1207.24 310.828ZM1213.56 291.234L1212.6 291.23L1212.6 291.247L1212.6 291.264L1213.56 291.234ZM1206.55 273.276L1205.81 273.889L1206.55 273.276ZM1190.73 263.208L1190.52 264.145L1190.53 264.148L1190.54 264.15L1190.73 263.208ZM1170.82 265.585L1171.18 266.478V266.478L1170.82 265.585ZM1130.73 296.503L1129.98 295.895L1129.97 295.904L1129.97 295.913L1130.73 296.503ZM1122.27 311.613L1121.35 311.312L1121.35 311.332L1121.34 311.352L1122.27 311.613ZM1121.77 325.773L1120.83 325.989V325.989L1121.77 325.773ZM1103.08 358.392L1103.82 357.78C1096.72 349.186 1091.71 340.361 1088.75 331.305L1087.84 331.604L1086.92 331.903C1089.97 341.222 1095.11 350.255 1102.34 359.005L1103.08 358.392ZM1087.84 331.604L1088.75 331.305C1085.79 322.253 1084.98 313.194 1086.29 304.117L1085.34 303.979L1084.39 303.841C1083.03 313.222 1083.87 322.58 1086.92 331.903L1087.84 331.604ZM1085.34 303.979L1086.29 304.117C1087.61 295.041 1091.11 285.979 1096.83 276.927L1096.02 276.413L1095.2 275.899C1089.36 285.143 1085.75 294.458 1084.39 303.841L1085.34 303.979ZM1096.02 276.413L1096.82 276.939C1102.64 268.014 1110.65 259.328 1120.88 250.886L1120.26 250.144L1119.65 249.402C1109.31 257.939 1101.16 266.766 1095.21 275.888L1096.02 276.413ZM1120.26 250.144L1120.88 250.886C1135.42 238.878 1149.25 231.401 1162.36 228.38L1162.14 227.442L1161.93 226.504C1148.43 229.614 1134.34 237.273 1119.65 249.402L1120.26 250.144ZM1162.14 227.442L1162.35 228.381C1175.71 225.375 1188.16 226.179 1199.73 230.762L1200.08 229.867L1200.44 228.972C1188.47 224.233 1175.63 223.421 1161.93 226.503L1162.14 227.442ZM1200.08 229.867L1199.72 230.759C1211.42 235.476 1221.88 243.399 1231.1 254.567L1231.84 253.954L1232.58 253.341C1223.19 241.963 1212.48 233.828 1200.44 228.975L1200.08 229.867ZM1231.84 253.954L1231.1 254.567C1238.2 263.161 1243.16 271.922 1246.02 280.85L1246.93 280.557L1247.85 280.263C1244.9 271.064 1239.81 262.09 1232.58 253.341L1231.84 253.954ZM1246.93 280.557L1246.02 280.87C1249.1 289.815 1249.98 298.817 1248.66 307.89L1249.61 308.028L1250.57 308.166C1251.93 298.781 1251.02 289.469 1247.84 280.244L1246.93 280.557ZM1249.61 308.028L1248.66 307.89C1247.35 316.958 1243.74 326.004 1237.79 335.032L1238.6 335.561L1239.4 336.09C1245.47 326.867 1249.21 317.557 1250.57 308.166L1249.61 308.028ZM1238.6 335.561L1237.78 335.047C1232.07 344.089 1223.99 352.936 1213.52 361.581L1214.13 362.323L1214.75 363.065C1225.33 354.322 1233.56 345.328 1239.41 336.075L1238.6 335.561ZM1214.13 362.323L1213.52 361.581C1202.93 370.326 1192.54 376.625 1182.36 380.502L1182.7 381.401L1183.04 382.301C1193.46 378.332 1204.03 371.912 1214.75 363.065L1214.13 362.323ZM1182.7 381.401L1182.34 380.507C1172.26 384.508 1162.54 386.159 1153.19 385.49L1153.12 386.45L1153.05 387.41C1162.73 388.102 1172.74 386.388 1183.05 382.296L1182.7 381.401ZM1153.12 386.45L1153.17 385.489C1143.91 384.941 1135.06 382.301 1126.63 377.559L1126.16 378.398L1125.69 379.236C1134.36 384.116 1143.49 386.844 1153.06 387.41L1153.12 386.45ZM1126.16 378.398L1126.64 377.564C1118.42 372.84 1110.82 366.252 1103.82 357.78L1103.08 358.392L1102.34 359.005C1109.46 367.628 1117.24 374.377 1125.68 379.232L1126.16 378.398ZM1128.71 339.102L1127.97 339.715C1132.67 345.412 1137.99 349.013 1143.93 350.414L1144.15 349.478L1144.37 348.541C1138.93 347.257 1133.96 343.941 1129.45 338.49L1128.71 339.102ZM1144.15 349.478L1143.94 350.415C1150.09 351.834 1156.76 351.036 1163.9 348.112L1163.54 347.221L1163.18 346.331C1156.31 349.142 1150.05 349.849 1144.37 348.54L1144.15 349.478ZM1163.54 347.221L1163.89 348.116C1171.25 345.22 1179.23 340.204 1187.82 333.107L1187.21 332.365L1186.6 331.623C1178.1 338.641 1170.3 343.528 1163.19 346.326L1163.54 347.221ZM1187.21 332.365L1187.82 333.107C1196.91 325.601 1203.67 318.347 1208.06 311.338L1207.24 310.828L1206.42 310.318C1202.19 317.092 1195.59 324.196 1186.6 331.623L1187.21 332.365ZM1207.24 310.828L1208.05 311.354C1212.54 304.468 1214.73 297.745 1214.52 291.204L1213.56 291.234L1212.6 291.264C1212.79 297.313 1210.77 303.653 1206.43 310.303L1207.24 310.828ZM1213.56 291.234L1214.52 291.239C1214.55 284.701 1212.11 278.503 1207.29 272.664L1206.55 273.276L1205.81 273.889C1210.39 279.446 1212.63 285.22 1212.6 291.23L1213.56 291.234ZM1206.55 273.276L1207.29 272.664C1202.67 267.07 1197.22 263.579 1190.93 262.266L1190.73 263.208L1190.54 264.15C1196.33 265.36 1201.42 268.581 1205.81 273.889L1206.55 273.276ZM1190.73 263.208L1190.95 262.27C1184.79 260.85 1177.95 261.692 1170.47 264.692L1170.82 265.585L1171.18 266.478C1178.41 263.58 1184.84 262.837 1190.52 264.145L1190.73 263.208ZM1170.82 265.585L1170.47 264.692C1162.99 267.69 1154.89 272.808 1146.17 280.006L1146.78 280.748L1147.39 281.49C1156.02 274.37 1163.95 269.379 1171.18 266.478L1170.82 265.585ZM1146.78 280.748L1146.17 280.006C1139.57 285.456 1134.17 290.752 1129.98 295.895L1130.73 296.503L1131.47 297.11C1135.56 292.089 1140.86 286.882 1147.39 281.49L1146.78 280.748ZM1130.73 296.503L1129.97 295.913C1125.88 301.183 1123 306.315 1121.35 311.312L1122.27 311.613L1123.18 311.915C1124.74 307.176 1127.5 302.235 1131.49 297.092L1130.73 296.503ZM1122.27 311.613L1121.34 311.352C1119.92 316.383 1119.74 321.267 1120.83 325.989L1121.77 325.773L1122.71 325.557C1121.7 321.177 1121.85 316.622 1123.19 311.875L1122.27 311.613ZM1121.77 325.773L1120.83 325.989C1121.92 330.712 1124.32 335.287 1127.97 339.715L1128.71 339.102L1129.45 338.49C1125.95 334.246 1123.72 329.935 1122.71 325.557L1121.77 325.773ZM1167.23 442.946L1166.85 442.062L1165.97 442.441L1166.35 443.325L1167.23 442.946ZM1197.14 430.136L1198.02 429.757L1197.64 428.872L1196.76 429.251L1197.14 430.136ZM1223.55 481.999L1224.18 481.272L1224.17 481.264L1223.55 481.999ZM1241.2 488.329L1241.16 489.29L1241.17 489.291L1241.2 488.329ZM1289.46 470.016L1290.07 470.76V470.76L1289.46 470.016ZM1299.71 457.234L1298.85 456.815L1298.84 456.836L1298.83 456.856L1299.71 457.234ZM1302.28 443.028L1301.32 443.098L1301.32 443.108L1302.28 443.028ZM1283.52 393.128L1283.14 392.243L1282.26 392.622L1282.64 393.506L1283.52 393.128ZM1313.42 380.317L1314.31 379.938L1313.93 379.054L1313.04 379.433L1313.42 380.317ZM1336.86 458.885L1337.82 458.962V458.962L1336.86 458.885ZM1322.39 493.656L1321.67 493.022L1321.67 493.026L1322.39 493.656ZM1255.79 526.648L1255.69 525.691L1255.68 525.692L1255.68 525.693L1255.79 526.648ZM1209.59 515.504L1210.16 514.729V514.729L1209.59 515.504ZM1194.41 500.251L1195.18 499.686V499.686L1194.41 500.251ZM1183.93 481.93L1183.05 482.309V482.309L1183.93 481.93ZM1160.21 426.555L1159.83 425.671L1158.95 426.05L1159.33 426.934L1160.21 426.555ZM1306.4 363.926L1307.29 363.547L1306.91 362.663L1306.02 363.042L1306.4 363.926ZM1321.77 399.809L1322.15 400.693L1323.04 400.315L1322.66 399.43L1321.77 399.809ZM1175.58 462.438L1174.7 462.817L1175.08 463.701L1175.96 463.322L1175.58 462.438ZM1167.23 442.946L1167.61 443.831L1197.52 431.02L1197.14 430.136L1196.76 429.251L1166.85 442.062L1167.23 442.946ZM1197.14 430.136L1196.25 430.515L1212.48 468.391L1213.36 468.012L1214.25 467.633L1198.02 429.757L1197.14 430.136ZM1213.36 468.012L1212.48 468.391C1214.94 474.131 1218.42 478.917 1222.93 482.733L1223.55 481.999L1224.17 481.264C1219.91 477.654 1216.6 473.116 1214.25 467.633L1213.36 468.012ZM1223.55 481.999L1222.92 482.725C1227.57 486.759 1233.68 488.923 1241.16 489.29L1241.2 488.329L1241.25 487.368C1234.09 487.017 1228.43 484.96 1224.18 481.272L1223.55 481.999ZM1241.2 488.329L1241.17 489.291C1248.84 489.595 1258.49 487.214 1270.06 482.257L1269.68 481.372L1269.3 480.488C1257.84 485.399 1248.5 487.656 1241.24 487.368L1241.2 488.329ZM1269.68 481.372L1270.06 482.257C1278.38 478.692 1285.06 474.864 1290.07 470.76L1289.46 470.016L1288.85 469.271C1284.03 473.224 1277.52 476.967 1269.3 480.488L1269.68 481.372ZM1289.46 470.016L1290.07 470.76C1295.07 466.662 1298.6 462.284 1300.6 457.612L1299.71 457.234L1298.83 456.856C1296.98 461.17 1293.68 465.313 1288.85 469.271L1289.46 470.016ZM1299.71 457.234L1300.58 457.653C1302.79 453.084 1303.67 448.175 1303.24 442.948L1302.28 443.028L1301.32 443.108C1301.73 448.005 1300.9 452.568 1298.85 456.815L1299.71 457.234ZM1302.28 443.028L1303.24 442.958C1302.87 437.915 1301.46 432.546 1299.02 426.86L1298.13 427.238L1297.25 427.617C1299.62 433.153 1300.97 438.311 1301.32 443.098L1302.28 443.028ZM1298.13 427.238L1299.02 426.86L1284.41 392.749L1283.52 393.128L1282.64 393.506L1297.25 427.617L1298.13 427.238ZM1283.52 393.128L1283.9 394.012L1313.8 381.201L1313.42 380.317L1313.04 379.433L1283.14 392.243L1283.52 393.128ZM1313.42 380.317L1312.54 380.696L1326.49 413.256L1327.37 412.877L1328.26 412.498L1314.31 379.938L1313.42 380.317ZM1327.37 412.877L1326.49 413.256C1333.85 430.444 1336.96 445.618 1335.9 458.807L1336.86 458.885L1337.82 458.962C1338.91 445.362 1335.7 429.865 1328.26 412.498L1327.37 412.877ZM1336.86 458.885L1335.9 458.807C1334.84 472.003 1330.09 483.397 1321.67 493.022L1322.39 493.656L1323.12 494.29C1331.82 484.342 1336.72 472.555 1337.82 458.962L1336.86 458.885ZM1322.39 493.656L1321.67 493.026C1313.37 502.614 1301.83 510.594 1287.02 516.94L1287.4 517.825L1287.77 518.709C1302.79 512.277 1314.59 504.144 1323.12 494.286L1322.39 493.656ZM1287.4 517.825L1287.02 516.94C1275.56 521.847 1265.12 524.755 1255.69 525.691L1255.79 526.648L1255.88 527.606C1265.56 526.646 1276.19 523.671 1287.77 518.709L1287.4 517.825ZM1255.79 526.648L1255.68 525.693C1246.28 526.777 1237.8 526.27 1230.22 524.198L1229.97 525.126L1229.71 526.054C1237.57 528.203 1246.3 528.711 1255.9 527.604L1255.79 526.648ZM1229.97 525.126L1230.22 524.198C1222.6 522.115 1215.92 518.956 1210.16 514.729L1209.59 515.504L1209.02 516.28C1214.99 520.661 1221.89 523.916 1229.71 526.054L1229.97 525.126ZM1209.59 515.504L1210.16 514.729C1204.38 510.483 1199.39 505.47 1195.18 499.686L1194.41 500.251L1193.63 500.817C1197.95 506.762 1203.08 511.918 1209.02 516.28L1209.59 515.504ZM1194.41 500.251L1195.18 499.686C1190.96 493.876 1187.51 487.832 1184.82 481.551L1183.93 481.93L1183.05 482.309C1185.8 488.728 1189.33 494.897 1193.63 500.817L1194.41 500.251ZM1183.93 481.93L1184.82 481.551L1168.12 442.567L1167.23 442.946L1166.35 443.325L1183.05 482.309L1183.93 481.93ZM1160.21 426.555L1160.59 427.44L1306.78 364.811L1306.4 363.926L1306.02 363.042L1159.83 425.671L1160.21 426.555ZM1306.4 363.926L1305.52 364.305L1320.89 400.188L1321.77 399.809L1322.66 399.43L1307.29 363.547L1306.4 363.926ZM1321.77 399.809L1321.4 398.925L1175.21 461.554L1175.58 462.438L1175.96 463.322L1322.15 400.693L1321.77 399.809ZM1175.58 462.438L1176.47 462.059L1161.1 426.176L1160.21 426.555L1159.33 426.934L1174.7 462.817L1175.58 462.438Z" fill="url(#paint1_linear_247_94)" fill-opacity="0.7" mask="url(#path-1-outside-1_247_94)"/>
<defs>
<linearGradient id="paint0_linear_247_94" x1="-55.6465" y1="636.443" x2="362.354" y2="805.943" gradientUnits="userSpaceOnUse">
<stop stop-color="#2541B4"/>
<stop offset="1" stop-color="#216799" stop-opacity="0"/>
</linearGradient>
<linearGradient id="paint1_linear_247_94" x1="-84.1465" y1="496.943" x2="1091.1" y2="415.693" gradientUnits="userSpaceOnUse">
<stop stop-color="#37ACFF" stop-opacity="0.6"/>
<stop offset="0.472411" stop-opacity="0"/>
</linearGradient>
</defs>
</svg>
