<svg width="101" height="53" viewBox="0 0 101 53" fill="none" xmlns="http://www.w3.org/2000/svg">
<path d="M5.83021 46.0653C5.02409 46.0653 4.31568 45.9798 3.70498 45.8088C3.10649 45.6378 2.59961 45.3874 2.18433 45.0577C1.78127 44.7157 1.48203 44.3004 1.28661 43.8118C1.09118 43.3233 1.00568 42.7553 1.03011 42.108L2.55075 41.7782C2.5019 42.4133 2.60572 42.9446 2.86221 43.3721C3.1187 43.7996 3.50955 44.1233 4.03475 44.3431C4.55996 44.5508 5.17676 44.6546 5.88517 44.6546C6.56916 44.6546 7.14932 44.5691 7.62567 44.3981C8.10201 44.2271 8.45622 43.9889 8.68828 43.6836C8.93256 43.3782 9.0547 43.0301 9.0547 42.6393C9.0547 42.1996 8.91424 41.8515 8.63332 41.595C8.3524 41.3385 7.97377 41.1431 7.49742 41.0087C7.03329 40.8622 6.51419 40.7278 5.94014 40.6057C5.37829 40.4835 4.81645 40.3431 4.25461 40.1843C3.69276 40.0255 3.18588 39.824 2.73396 39.5797C2.29426 39.3232 1.93395 38.9934 1.65303 38.5904C1.38432 38.1751 1.24996 37.6499 1.24996 37.0148C1.24996 36.2941 1.42707 35.6712 1.78127 35.146C2.14769 34.6208 2.66068 34.2177 3.32024 33.9368C3.97979 33.6437 4.75538 33.4971 5.647 33.4971C6.52641 33.4971 7.3081 33.6376 7.99209 33.9185C8.68828 34.1994 9.23791 34.6147 9.64098 35.1643C10.044 35.7017 10.2578 36.3674 10.2822 37.1613L8.70661 37.5461C8.70661 37.1064 8.62721 36.7216 8.46843 36.3918C8.32187 36.0498 8.11423 35.775 7.84552 35.5674C7.57681 35.3475 7.25314 35.1827 6.87451 35.0727C6.49587 34.9506 6.0806 34.8895 5.62868 34.8895C5.07905 34.8895 4.5966 34.975 4.18132 35.146C3.76605 35.317 3.44237 35.5491 3.21031 35.8422C2.97824 36.1353 2.86221 36.4834 2.86221 36.8865C2.86221 37.3629 3.0271 37.7415 3.35688 38.0224C3.69887 38.2911 4.13857 38.5049 4.67599 38.6636C5.2134 38.8224 5.78746 38.969 6.39816 39.1033C6.92336 39.2133 7.43635 39.3476 7.93712 39.5064C8.45011 39.653 8.91424 39.8545 9.32952 40.111C9.7448 40.3553 10.0746 40.679 10.3189 41.082C10.5631 41.4851 10.6853 41.9981 10.6853 42.621C10.6853 43.3172 10.5021 43.9218 10.1356 44.4348C9.78144 44.9477 9.24402 45.3508 8.5234 45.6439C7.80277 45.9249 6.90504 46.0653 5.83021 46.0653ZM16.9834 46.0653C16.1528 46.0653 15.4444 45.931 14.8582 45.6623C14.2841 45.3936 13.8139 45.0332 13.4474 44.5813C13.0932 44.1294 12.8306 43.6103 12.6596 43.024C12.5009 42.4378 12.4215 41.8271 12.4215 41.1919C12.4215 40.4957 12.5131 39.8423 12.6963 39.2316C12.8795 38.6209 13.1543 38.0835 13.5207 37.6193C13.8994 37.143 14.3635 36.7766 14.9131 36.5201C15.475 36.2514 16.1284 36.117 16.8735 36.117C17.5941 36.117 18.2292 36.2453 18.7789 36.5018C19.3285 36.746 19.7743 37.0941 20.1163 37.5461C20.4705 37.998 20.6965 38.5354 20.7942 39.1583L19.2002 39.598C19.1758 39.256 19.072 38.9262 18.8888 38.6087C18.7178 38.2911 18.4613 38.0346 18.1193 37.8392C17.7773 37.6316 17.3559 37.5277 16.8552 37.5277C16.3788 37.5277 15.9696 37.6193 15.6276 37.8026C15.2979 37.9858 15.0169 38.2423 14.7849 38.572C14.565 38.9018 14.394 39.2866 14.2719 39.7263C14.162 40.166 14.107 40.6423 14.107 41.1553C14.107 41.8637 14.2047 42.4805 14.4001 43.0057C14.6078 43.5309 14.9253 43.9401 15.3528 44.2332C15.7803 44.5264 16.3299 44.6729 17.0017 44.6729C17.5025 44.6729 17.93 44.5874 18.2842 44.4164C18.6384 44.2332 18.9193 43.9828 19.127 43.6653C19.3346 43.3355 19.4689 42.9508 19.53 42.511L21.069 42.8591C20.9835 43.3844 20.8247 43.8485 20.5926 44.2515C20.3606 44.6546 20.0674 44.9905 19.7132 45.2592C19.359 45.5157 18.9499 45.7111 18.4857 45.8455C18.0338 45.992 17.533 46.0653 16.9834 46.0653ZM22.788 45.8271V40.6973V36.3552H24.2903L24.1438 39.653H24.4552C24.5651 38.9323 24.7361 38.3094 24.9682 37.7842C25.2003 37.259 25.5056 36.8499 25.8842 36.5567C26.2751 36.2636 26.7576 36.117 27.3316 36.117C27.4537 36.117 27.5942 36.1292 27.753 36.1537C27.9118 36.1659 28.095 36.2086 28.3026 36.2819L28.211 38.0224C28.0278 37.9491 27.8446 37.9003 27.6614 37.8758C27.4782 37.8392 27.3011 37.8209 27.1301 37.8209C26.6537 37.8209 26.2385 37.9736 25.8842 38.2789C25.5423 38.5843 25.2552 38.9995 25.0232 39.5247C24.7911 40.0377 24.6018 40.6179 24.4552 41.2652V45.8271H22.788ZM33.8466 46.0653C32.9427 46.0653 32.1427 45.8699 31.4465 45.479C30.7625 45.076 30.2251 44.5019 29.8343 43.7569C29.4556 43.0118 29.2663 42.108 29.2663 41.0454C29.2663 39.9461 29.4679 39.0362 29.8709 38.3155C30.2862 37.5827 30.8358 37.0331 31.5198 36.6667C32.2038 36.3002 32.9672 36.117 33.8099 36.117C34.6893 36.117 35.471 36.3124 36.155 36.7033C36.8512 37.0819 37.4009 37.6438 37.8039 38.3888C38.207 39.1217 38.4085 40.0316 38.4085 41.1187C38.4085 42.2057 38.207 43.1156 37.8039 43.8485C37.4131 44.5813 36.8695 45.1371 36.1733 45.5157C35.4894 45.8821 34.7138 46.0653 33.8466 46.0653ZM33.9199 44.6912C34.5061 44.6912 35.0069 44.5508 35.4222 44.2699C35.8497 43.9767 36.1733 43.5676 36.3932 43.0424C36.6253 42.5172 36.7413 41.8942 36.7413 41.1736C36.7413 40.4286 36.6192 39.7873 36.3749 39.2499C36.1428 38.7003 35.8069 38.2789 35.3672 37.9858C34.9275 37.6804 34.3962 37.5277 33.7733 37.5277C33.2115 37.5277 32.7168 37.6621 32.2893 37.9308C31.8618 38.1995 31.532 38.5965 31.3 39.1217C31.0679 39.6347 30.9519 40.2637 30.9519 41.0087C30.9519 42.1568 31.2145 43.0607 31.7397 43.7202C32.2771 44.3676 33.0038 44.6912 33.9199 44.6912ZM40.5994 45.8271V33.0025H42.2666V45.8271H40.5994ZM44.9607 45.8271V33.0025H46.6279V45.8271H44.9607ZM54.7986 45.8271V44.3798H58.3712C59.2018 44.3798 59.8858 44.1905 60.4232 43.8118C60.9606 43.421 61.3575 42.8836 61.614 42.1996C61.8827 41.5156 62.0171 40.7217 62.0171 39.8179C62.0171 39.024 61.9316 38.3339 61.7606 37.7476C61.6018 37.1613 61.3514 36.685 61.0094 36.3186C60.6675 35.9399 60.2339 35.659 59.7087 35.4758C59.1957 35.2804 58.585 35.1827 57.8766 35.1827H54.7986V33.7353H57.8399C59.2079 33.7353 60.3255 33.9735 61.1927 34.4498C62.0599 34.9262 62.7011 35.6101 63.1164 36.5018C63.5316 37.3934 63.7393 38.456 63.7393 39.6896C63.7393 40.508 63.6477 41.2469 63.4645 41.9065C63.2935 42.566 63.0431 43.1401 62.7133 43.6286C62.3957 44.1172 62.0171 44.5264 61.5774 44.8561C61.1377 45.1737 60.6491 45.418 60.1117 45.589C59.5743 45.7478 59.0125 45.8271 58.4262 45.8271H54.7986ZM53.9009 45.8271V33.7353H55.5864V45.8271H53.9009ZM70.1987 46.0653C69.2949 46.0653 68.4949 45.8699 67.7987 45.479C67.1147 45.076 66.5773 44.5019 66.1864 43.7569C65.8078 43.0118 65.6185 42.108 65.6185 41.0454C65.6185 39.9461 65.82 39.0362 66.2231 38.3155C66.6383 37.5827 67.188 37.0331 67.8719 36.6667C68.5559 36.3002 69.3193 36.117 70.1621 36.117C71.0415 36.117 71.8232 36.3124 72.5072 36.7033C73.2034 37.0819 73.753 37.6438 74.156 38.3888C74.5591 39.1217 74.7606 40.0316 74.7606 41.1187C74.7606 42.2057 74.5591 43.1156 74.156 43.8485C73.7652 44.5813 73.2217 45.1371 72.5255 45.5157C71.8415 45.8821 71.0659 46.0653 70.1987 46.0653ZM70.272 44.6912C70.8583 44.6912 71.359 44.5508 71.7743 44.2699C72.2018 43.9767 72.5255 43.5676 72.7453 43.0424C72.9774 42.5172 73.0934 41.8942 73.0934 41.1736C73.0934 40.4286 72.9713 39.7873 72.727 39.2499C72.4949 38.7003 72.1591 38.2789 71.7194 37.9858C71.2797 37.6804 70.7483 37.5277 70.1254 37.5277C69.5636 37.5277 69.0689 37.6621 68.6414 37.9308C68.2139 38.1995 67.8842 38.5965 67.6521 39.1217C67.42 39.6347 67.304 40.2637 67.304 41.0087C67.304 42.1568 67.5666 43.0607 68.0918 43.7202C68.6292 44.3676 69.3559 44.6912 70.272 44.6912ZM78.4006 45.8271L75.8907 36.3552H77.6128L79.4816 44.4164H79.7747L81.7717 36.3552H83.9336L85.9489 44.4164H86.2237L88.0925 36.3552H89.7963L87.2497 45.8271H84.9046L82.9443 37.7842H82.7244L80.7641 45.8271H78.4006ZM91.511 45.8271V39.9461V36.3552H93.0134L92.8485 39.3598H93.1599C93.3309 38.6148 93.5569 38.0041 93.8378 37.5277C94.1309 37.0514 94.4974 36.6972 94.9371 36.4651C95.3768 36.2331 95.8897 36.117 96.476 36.117C97.5264 36.117 98.3203 36.4957 98.8577 37.2529C99.4074 37.998 99.6822 39.1156 99.6822 40.6057V45.8271H97.9967V40.7522C97.9967 39.6774 97.8257 38.8835 97.4837 38.3705C97.1539 37.8575 96.6653 37.601 96.018 37.601C95.4317 37.601 94.931 37.7842 94.5157 38.1507C94.1126 38.5171 93.795 38.9995 93.563 39.598C93.3309 40.1965 93.2027 40.8438 93.1782 41.54V45.8271H91.511Z" fill="white"/>
<path d="M49.6868 22.2866C50.0701 22.6699 50.6916 22.6699 51.0749 22.2866L57.321 16.0405C57.7043 15.6572 57.7043 15.0358 57.321 14.6525C56.9377 14.2692 56.3162 14.2692 55.933 14.6525L50.3809 20.2046L44.8288 14.6525C44.4455 14.2692 43.824 14.2692 43.4407 14.6525C43.0574 15.0358 43.0574 15.6572 43.4407 16.0405L49.6868 22.2866ZM50.3809 0L49.3994 -4.29021e-08L49.3994 21.5926L50.3809 21.5926L51.3623 21.5926L51.3623 4.29021e-08L50.3809 0Z" fill="white"/>
</svg>
